<svg width="217" height="250" viewBox="0 0 217 250" fill="none" xmlns="http://www.w3.org/2000/svg">
<g clip-path="url(#clip0)">
<path d="M154.509 43.2906C151.467 40.2484 146.516 40.2453 143.467 43.2844C143.466 43.2859 143.463 43.2875 143.459 43.2891L103.742 83.0109C103.7 83.0547 103.681 83.1109 103.644 83.1578C103.606 83.2047 103.553 83.2344 103.522 83.2875L92.5642 100.806L83.6907 109.68C83.6892 109.681 83.6876 109.681 83.686 109.683C83.6845 109.684 83.6845 109.686 83.6829 109.687L73.8157 119.555C73.8142 119.556 73.8126 119.556 73.811 119.558C73.8095 119.559 73.8095 119.561 73.8079 119.562L67.2313 126.139C67.2298 126.141 67.2282 126.141 67.2267 126.142C67.2251 126.144 67.2251 126.145 67.2235 126.147L64.9798 128.391L64.9782 128.389C64.3673 127.778 63.3798 127.778 62.7688 128.389L59.4548 131.703C58.8438 132.314 58.8438 133.302 59.4548 133.912L66.0829 140.542C66.3767 140.836 66.772 141 67.1876 141C67.6032 141 68.0001 140.836 68.2923 140.542L71.6079 137.227C71.9017 136.933 72.0657 136.537 72.0657 136.122C72.0657 135.706 71.9017 135.309 71.6079 135.017L77.1438 129.478H77.1454C77.1454 129.478 77.1454 129.478 77.1454 129.477L93.6017 113.022C93.6017 113.02 93.6032 113.02 93.6048 113.019C93.6063 113.017 93.6063 113.016 93.6079 113.016L99.1876 107.434L116.711 96.4766C116.753 96.4484 116.778 96.4062 116.817 96.3766C116.874 96.3344 116.939 96.3125 116.991 96.2609L156.709 56.5406C158.186 55.0641 159 53.1031 159.002 51.0172C159.002 48.9328 158.188 46.9703 156.711 45.4937L154.509 43.2906ZM67.1892 137.227L62.7704 132.806L63.8751 131.702L68.2954 136.12L67.1892 137.227ZM152.3 45.5L154.502 47.7031C155.388 48.5891 155.877 49.7656 155.877 51.0172C155.877 52.2687 155.388 53.4453 154.5 54.3328L114.927 93.9062L97.3813 104.877C97.3298 104.909 97.3001 104.961 97.2532 104.998C97.2063 105.034 97.1501 105.052 97.1048 105.097L92.5017 109.702L90.2938 107.494L94.8985 102.889C94.9126 102.875 94.9173 102.856 94.9298 102.844C94.997 102.77 95.0657 102.7 95.1188 102.614L106.077 85.0953L145.661 45.5062C145.664 45.5031 145.667 45.5031 145.67 45.5C147.499 43.6719 150.472 43.6734 152.3 45.5ZM89.2095 112.994L87.0032 110.787L88.0845 109.705L90.2923 111.912L89.2095 112.994ZM85.9188 116.286L83.711 114.08L84.7938 112.998L87.0001 115.205L85.9188 116.286ZM82.6251 119.578L80.4188 117.37L81.5001 116.289L83.7079 118.495L82.6251 119.578ZM79.3345 122.869L77.1282 120.662L78.2095 119.58L80.4157 121.787L79.3345 122.869ZM76.0423 126.162L73.8345 123.955L74.9173 122.873L77.1235 125.08L76.0423 126.162ZM72.7501 129.453L70.5423 127.245L71.6251 126.164L73.8329 128.372L72.7501 129.453ZM68.3329 129.455L70.5423 131.664L69.4048 132.8L67.197 130.592L68.3329 129.455Z" fill="white"/>
</g>
<defs>
<clipPath id="clip0">
<rect width="100" height="100" fill="white" transform="translate(59 41)"/>
</clipPath>
</defs>
</svg>
