<svg width="140" height="32" viewBox="0 0 140 32" fill="none" xmlns="http://www.w3.org/2000/svg">
<path d="M0 8.44163H6.5035L10.6382 23.559L14.3852 8.44163H20.2858L24.162 23.4729L28.2967 8.44163H34.5418L27.5215 30.6655H21.2333L17.2709 15.7204L13.4377 30.6655H7.10648L0 8.44163Z" fill="white"/>
<path d="M82.6208 8.44163L74.2653 16.6679L83.6114 30.6655H76.2034L70.0875 20.8026L67.5895 23.1284V30.6655H61.6028V0H67.5895V16.4095L75.4282 8.44163H82.6208Z" fill="white"/>
<path d="M90.8248 0V5.16835H84.7089V0H90.8248ZM90.8248 8.44163V30.6655H84.7089V8.44163H90.8248Z" fill="white"/>
<path d="M115.292 23.7744C114.603 26.1576 113.325 28.0096 111.458 29.3304C109.621 30.6512 107.424 31.3116 104.869 31.3116C101.452 31.3116 98.6955 30.2492 96.5994 28.1244C94.5321 25.9997 93.4984 23.1858 93.4984 19.6828C93.4984 16.2372 94.5464 13.3946 96.6425 11.155C98.7385 8.9154 101.409 7.79559 104.653 7.79559C108.013 7.79559 110.683 8.94411 112.664 11.2412C114.646 13.5095 115.636 16.5961 115.636 20.5011V21.1041H99.7004C99.7291 23.0279 100.189 24.4922 101.079 25.4972C101.997 26.5021 103.275 27.0046 104.912 27.0046C107.065 27.0046 108.573 25.9279 109.434 23.7744H115.292ZM109.434 17.2278C109.291 15.7635 108.817 14.5719 108.013 13.6531C107.209 12.7055 106.089 12.2318 104.653 12.2318C103.304 12.2318 102.184 12.6768 101.294 13.5669C100.404 14.457 99.8727 15.6773 99.7004 17.2278H109.434Z" fill="white"/>
<path d="M138.785 23.7744C138.096 26.1576 136.818 28.0096 134.952 29.3304C133.115 30.6512 130.918 31.3116 128.363 31.3116C124.946 31.3116 122.189 30.2492 120.093 28.1244C118.026 25.9997 116.992 23.1858 116.992 19.6828C116.992 16.2372 118.04 13.3946 120.136 11.155C122.232 8.9154 124.903 7.79559 128.147 7.79559C131.507 7.79559 134.177 8.94411 136.158 11.2412C138.139 13.5095 139.13 16.5961 139.13 20.5011V21.1041H123.194C123.223 23.0279 123.682 24.4922 124.572 25.4972C125.491 26.5021 126.769 27.0046 128.406 27.0046C130.559 27.0046 132.066 25.9279 132.928 23.7744H138.785ZM132.928 17.2278C132.784 15.7635 132.311 14.5719 131.507 13.6531C130.703 12.7055 129.583 12.2318 128.147 12.2318C126.798 12.2318 125.678 12.6768 124.788 13.5669C123.898 14.457 123.366 15.6773 123.194 17.2278H132.928Z" fill="white"/>
<path d="M46.4791 28.5607L45.1146 28.9302L44.745 27.5511L46.0952 27.1956C45.9673 26.769 45.7825 26.3425 45.5695 25.9301L44.3612 26.6268L43.6505 25.404L44.8728 24.693C44.6171 24.309 44.3329 23.9535 44.0344 23.6123L43.0394 24.6076L42.0302 23.598L43.0252 22.603C42.684 22.3042 42.3287 22.0199 41.9451 21.7639L41.2344 22.9868L40.012 22.2757L40.7085 21.0671C40.2962 20.8539 39.8699 20.6688 39.4435 20.5412L39.0881 21.892L37.7094 21.5222L38.0789 20.1571C37.0697 19.9722 35.9706 19.9154 34.9331 20.015C35.1463 26.3425 40.2962 31.4422 46.6212 31.6556C46.7349 30.6318 46.678 29.5844 46.4791 28.5607ZM47.5166 7.39807C47.4172 8.42162 47.4598 9.56403 47.6588 10.5736L49.009 10.218L49.3785 11.5975L48.0425 11.9529C48.1704 12.3935 48.3551 12.8059 48.5684 13.2182L49.7624 12.5214L50.473 13.7443L49.2506 14.4553C49.5064 14.825 49.7908 15.1948 50.1035 15.536L51.0842 14.5406L52.0934 15.5502L51.0984 16.5313C51.4395 16.8442 51.7949 17.1286 52.1785 17.3845L52.8891 16.1616L54.1116 16.8725L53.4151 18.0811C53.8272 18.2945 54.2537 18.4652 54.6801 18.5931L55.0354 17.2566L56.4142 17.6262L56.0446 18.977C57.0395 19.176 58.1389 19.2329 59.1907 19.1192C58.9631 12.8059 53.8272 7.62543 47.5166 7.39807ZM58.0914 20.6123C57.2669 20.6123 56.4568 20.527 55.6752 20.3704L55.3057 21.7498L53.9412 21.38L54.3106 20.0007C53.7562 19.8159 53.2162 19.5884 52.7044 19.3183L51.9796 20.5695L50.7572 19.8585L51.4821 18.6073C50.9989 18.2945 50.5298 17.9389 50.1035 17.5267L49.0658 18.5646L48.0709 17.5693L49.0943 16.5313C48.6964 16.0906 48.3411 15.6355 48.0283 15.1522L46.7774 15.8771L46.0667 14.6543L47.3177 13.9292C47.0617 13.4031 46.8485 12.877 46.6638 12.3224L45.2565 12.6922L44.8871 11.3271L46.2944 10.9432C46.0528 9.83413 45.9816 8.57818 46.081 7.42627C40.1825 7.89567 35.4304 12.6922 34.9614 18.5788C36.1127 18.4935 37.3399 18.5646 38.4486 18.7779L38.8181 17.3986L40.1825 17.7683L39.8131 19.1618C40.3671 19.3326 40.8932 19.5601 41.4191 19.8302L42.1439 18.5788L43.3662 19.2897L42.6555 20.527C43.1388 20.8539 43.5937 21.2093 44.0344 21.6076L45.0578 20.5838L46.0525 21.579L45.0292 22.603C45.4272 23.0437 45.7825 23.4986 46.1096 23.9821L47.3462 23.2711L48.0568 24.4939L46.8059 25.2192C47.0759 25.7451 47.3035 26.2714 47.4741 26.8258L48.8669 26.4561L49.2364 27.8212L47.8577 28.1908C48.0709 29.2999 48.1419 30.4754 48.0566 31.6271C53.9412 31.158 58.693 26.4561 59.162 20.5695C58.821 20.598 58.4326 20.6123 58.0914 20.6123Z" fill="white"/>
</svg>
