<svg width="48" height="48" viewBox="0 0 48 48" fill="none" xmlns="http://www.w3.org/2000/svg">
<path d="M31.4906 48H40.4906C40.8969 48 41.2406 47.8594 41.5219 47.5781C41.8344 47.2656 41.9906 46.9062 41.9906 46.5V28.5H46.4906C46.8031 28.5 47.0844 28.4219 47.3344 28.2656C47.5844 28.0781 47.7719 27.8438 47.8969 27.5625C47.9906 27.2812 48.0063 27 47.9438 26.7188C47.8813 26.4062 47.7563 26.1406 47.5688 25.9219L28.0688 6.42188C27.7563 6.14062 27.3969 6 26.9906 6C26.5844 6 26.225 6.14062 25.9125 6.42188L6.4125 25.9219C6.225 26.1406 6.1 26.4062 6.0375 26.7188C5.975 27 5.99063 27.2812 6.08438 27.5625C6.20938 27.8438 6.39688 28.0781 6.64688 28.2656C6.89688 28.4219 7.17813 28.5 7.49063 28.5H11.9906V46.5C11.9906 46.9062 12.1313 47.2656 12.4125 47.5781C12.725 47.8594 13.0844 48 13.4906 48H22.4906C22.8969 48 23.2406 47.8594 23.5219 47.5781C23.8344 47.2656 23.9906 46.9062 23.9906 46.5V36H29.9906V46.5C29.9906 46.9062 30.1313 47.2656 30.4125 47.5781C30.725 47.8594 31.0844 48 31.4906 48ZM22.4906 33C22.0844 33 21.725 33.1562 21.4125 33.4688C21.1313 33.75 20.9906 34.0938 20.9906 34.5V45H14.9906V27C14.9906 26.5938 14.8344 26.25 14.5219 25.9688C14.2406 25.6562 13.8969 25.5 13.4906 25.5H11.1L26.9906 9.60938L42.8813 25.5H40.4906C40.0844 25.5 39.725 25.6562 39.4125 25.9688C39.1313 26.25 38.9906 26.5938 38.9906 27V45H32.9906V34.5C32.9906 34.0938 32.8344 33.75 32.5219 33.4688C32.2406 33.1562 31.8969 33 31.4906 33H22.4906Z" fill="#999999"/>
<path d="M6.89062 8.53125L5.8125 9.60938L9.375 13.1719L12.9375 9.60938L11.8594 8.53125C11.2031 7.875 10.375 7.54688 9.375 7.54688C8.375 7.54688 7.54688 7.875 6.89062 8.53125ZM9.375 0C7.8125 0 6.3125 0.296875 4.875 0.890625C3.46875 1.48438 2.20312 2.32812 1.07812 3.42188L0 4.5L2.15625 6.60938L3.1875 5.57812C4.03125 4.73438 4.98438 4.09375 6.04688 3.65625C7.10938 3.21875 8.21875 3 9.375 3C10.5312 3 11.6406 3.21875 12.7031 3.65625C13.7656 4.09375 14.7188 4.73438 15.5625 5.57812L16.5938 6.60938L18.75 4.5L17.6719 3.42188C16.5469 2.32812 15.2656 1.48438 13.8281 0.890625C12.4219 0.296875 10.9375 0 9.375 0Z" fill="#999999"/>
</svg>
