<svg width="48" height="48" viewBox="0 0 48 48" fill="none" xmlns="http://www.w3.org/2000/svg">
<path d="M24 42C25.2121 42 26.2424 41.5625 27.0909 40.6875C27.9394 39.8125 28.3636 38.75 28.3636 37.5C28.3636 36.25 27.9394 35.1875 27.0909 34.3125C26.2424 33.4375 25.2121 33 24 33C22.7879 33 21.7576 33.4375 20.9091 34.3125C20.0606 35.1875 19.6364 36.25 19.6364 37.5C19.6364 38.75 20.0606 39.8125 20.9091 40.6875C21.7576 41.5625 22.7879 42 24 42ZM24 36C24.3939 36 24.7273 36.1562 25 36.4688C25.303 36.75 25.4545 37.0938 25.4545 37.5C25.4545 37.9062 25.303 38.2656 25 38.5781C24.7273 38.8594 24.3939 39 24 39C23.6061 39 23.2576 38.8594 22.9545 38.5781C22.6818 38.2656 22.5455 37.9062 22.5455 37.5C22.5455 37.0938 22.6818 36.75 22.9545 36.4688C23.2576 36.1562 23.6061 36 24 36ZM12.3636 48H35.6364C36.8485 48 37.8788 47.5625 38.7273 46.6875C39.5758 45.8125 40 44.75 40 43.5V4.5C40 3.25 39.5758 2.1875 38.7273 1.3125C37.8788 0.4375 36.8485 0 35.6364 0H12.3636C11.1515 0 10.1212 0.4375 9.27273 1.3125C8.42424 2.1875 8 3.25 8 4.5V43.5C8 44.75 8.42424 45.8125 9.27273 46.6875C10.1212 47.5625 11.1515 48 12.3636 48ZM10.9091 4.5C10.9091 4.09375 11.0455 3.75 11.3182 3.46875C11.6212 3.15625 11.9697 3 12.3636 3H35.6364C36.0303 3 36.3636 3.15625 36.6364 3.46875C36.9394 3.75 37.0909 4.09375 37.0909 4.5V43.5C37.0909 43.9062 36.9394 44.2656 36.6364 44.5781C36.3636 44.8594 36.0303 45 35.6364 45H12.3636C11.9697 45 11.6212 44.8594 11.3182 44.5781C11.0455 44.2656 10.9091 43.9062 10.9091 43.5V4.5Z" fill="#999999"/>
</svg>
