<svg width="48" height="48" viewBox="0 0 48 48" fill="none" xmlns="http://www.w3.org/2000/svg">
<path d="M43.7477 20.4729C43.3413 18.4987 42.3564 16.8692 40.793 15.5844C39.2297 14.2996 37.4475 13.6572 35.4464 13.6572C34.3208 13.6572 33.2421 13.8766 32.2103 14.3153C31.1785 14.7227 30.2718 15.3337 29.4901 16.1485L28.5521 17.0416H19.4066L18.5155 16.1485C17.7338 15.3337 16.8271 14.7227 15.7953 14.3153C14.7635 13.8766 13.6848 13.6572 12.5592 13.6572C10.5581 13.6572 8.7759 14.2996 7.21256 15.5844C5.64923 16.8692 4.66432 18.4987 4.25786 20.4729L0.0837501 41.6252C-0.0725835 42.3773 -0.01005 43.098 0.27135 43.7874C0.584018 44.4768 1.05302 45.0252 1.67835 45.4326C2.33495 45.84 3.03846 46.028 3.78886 45.9966C4.53926 45.9653 5.21149 45.7146 5.80556 45.2446L12.2778 40.403C12.6842 40.6224 13.1063 40.7948 13.5441 40.9201C14.0131 41.0455 14.4977 41.1081 14.998 41.1081C16.405 41.1081 17.64 40.6851 18.7031 39.839C19.7661 38.9616 20.454 37.8805 20.7667 36.5956H27.2389C27.5516 37.8805 28.2394 38.9616 29.3025 39.839C30.3656 40.6851 31.6006 41.1081 33.0076 41.1081C33.5079 41.1081 33.9769 41.0455 34.4146 40.9201C34.8836 40.7948 35.337 40.6224 35.7747 40.403L42.2 45.2446C42.5127 45.4953 42.8566 45.6833 43.2318 45.8086C43.607 45.934 43.9822 45.9966 44.3574 45.9966C44.7014 45.9966 45.0297 45.9496 45.3423 45.8556C45.6863 45.7616 46.0146 45.6206 46.3272 45.4326C46.9526 45.0252 47.4059 44.4768 47.6873 43.7874C48 43.098 48.0782 42.3773 47.9218 41.6252L43.7477 20.4729ZM14.998 38.0998C14.185 38.0998 13.4815 37.8021 12.8875 37.2067C12.2934 36.6113 11.9964 35.9062 11.9964 35.0915C11.9964 34.2767 12.2934 33.5717 12.8875 32.9763C13.4815 32.3809 14.185 32.0832 14.998 32.0832C15.8109 32.0832 16.5144 32.3809 17.1085 32.9763C17.7025 33.5717 17.9996 34.2767 17.9996 35.0915C17.9996 35.9062 17.7025 36.6113 17.1085 37.2067C16.5144 37.8021 15.8109 38.0998 14.998 38.0998ZM30.006 35.0915C30.006 34.2767 30.303 33.5717 30.8971 32.9763C31.4912 32.3809 32.1947 32.0832 33.0076 32.0832C33.8205 32.0832 34.524 32.3809 35.1181 32.9763C35.7122 33.5717 36.0092 34.2767 36.0092 35.0915C36.0092 35.9062 35.7122 36.6113 35.1181 37.2067C34.524 37.8021 33.8205 38.0998 33.0076 38.0998C32.1947 38.0998 31.4912 37.8021 30.8971 37.2067C30.303 36.6113 30.006 35.9062 30.006 35.0915ZM44.7326 42.8943C44.6388 42.9257 44.5294 42.957 44.4043 42.9883C44.2793 43.0197 44.1386 42.9727 43.9822 42.8473L38.0259 38.3818C38.3386 37.9118 38.5731 37.3947 38.7294 36.8307C38.917 36.2666 39.0108 35.6869 39.0108 35.0915C39.0108 33.4306 38.4167 32.0205 37.2286 30.861C36.0717 29.6703 34.6647 29.0749 33.0076 29.0749C31.6006 29.0749 30.3656 29.5136 29.3025 30.391C28.2394 31.2371 27.5516 32.3025 27.2389 33.5873H20.7667C20.454 32.3025 19.7661 31.2371 18.7031 30.391C17.64 29.5136 16.405 29.0749 14.998 29.0749C13.3408 29.0749 11.9182 29.6703 10.7301 30.861C9.5732 32.0205 8.99476 33.4306 8.99476 35.0915C8.99476 35.6869 9.07293 36.2666 9.22927 36.8307C9.41687 37.3947 9.667 37.9118 9.97967 38.3818L4.02336 42.8473C3.86702 42.9727 3.72632 43.0197 3.60126 42.9883C3.47619 42.957 3.36676 42.9257 3.27296 42.8943C3.21042 42.8316 3.13226 42.7533 3.03846 42.6593C2.97592 42.5653 2.96029 42.4086 2.99155 42.1892L7.21256 21.037C7.4627 19.7835 8.08803 18.7494 9.08856 17.9347C10.1204 17.0886 11.2772 16.6655 12.5592 16.6655C13.2783 16.6655 13.9662 16.8066 14.6228 17.0886C15.3106 17.3393 15.9047 17.731 16.405 18.2637L18.1872 20.0499H29.8184L31.6006 18.2637C32.1009 17.731 32.6793 17.3393 33.3359 17.0886C34.0238 16.8066 34.7273 16.6655 35.4464 16.6655C36.7283 16.6655 37.8696 17.0886 38.8701 17.9347C39.9019 18.7494 40.5429 19.7835 40.793 21.037L45.014 42.1892C45.0453 42.4086 45.014 42.5653 44.9202 42.6593C44.8577 42.7533 44.7952 42.8316 44.7326 42.8943ZM22.502 2H25.5036V14.0333H22.502V2Z" fill="#999999"/>
</svg>
