<svg width="48" height="48" viewBox="0 0 48 48" fill="none" xmlns="http://www.w3.org/2000/svg">
<path d="M12 1.5V7.5C10.3438 7.5 8.92188 8.09375 7.73438 9.28125C6.57812 10.4375 6 11.8438 6 13.5V34.5C6 36.1562 6.57812 37.5781 7.73438 38.7656C8.92188 39.9219 10.3438 40.5 12 40.5V46.5C12 46.9062 12.1406 47.25 12.4219 47.5312C12.7344 47.8438 13.0938 48 13.5 48H31.5C31.9062 48 32.25 47.8438 32.5312 47.5312C32.8438 47.25 33 46.9062 33 46.5V40.5C34.6562 40.5 36.0625 39.9219 37.2188 38.7656C38.4062 37.5781 39 36.1562 39 34.5V28.5H40.5C40.9062 28.5 41.25 28.3594 41.5312 28.0781C41.8438 27.7656 42 27.4062 42 27V21C42 20.5938 41.8438 20.25 41.5312 19.9688C41.25 19.6562 40.9062 19.5 40.5 19.5H39V13.5C39 11.8438 38.4062 10.4375 37.2188 9.28125C36.0625 8.09375 34.6562 7.5 33 7.5V1.5C33 1.09375 32.8438 0.75 32.5312 0.46875C32.25 0.15625 31.9062 0 31.5 0H13.5C13.0938 0 12.7344 0.15625 12.4219 0.46875C12.1406 0.75 12 1.09375 12 1.5ZM30 45H15V40.5H30V45ZM36 13.5V34.5C36 35.3125 35.7031 36.0156 35.1094 36.6094C34.5156 37.2031 33.8125 37.5 33 37.5H12C11.1875 37.5 10.4844 37.2031 9.89062 36.6094C9.29688 36.0156 9 35.3125 9 34.5V13.5C9 12.6875 9.29688 11.9844 9.89062 11.3906C10.4844 10.7969 11.1875 10.5 12 10.5H33C33.8125 10.5 34.5156 10.7969 35.1094 11.3906C35.7031 11.9844 36 12.6875 36 13.5ZM30 3V7.5H15V3H30Z" fill="#999999"/>
</svg>
