<svg width="48" height="48" viewBox="0 0 48 48" fill="none" xmlns="http://www.w3.org/2000/svg">
<path d="M0 40.0952H22.5V43.1905C20.9688 43.2222 19.4844 43.3175 18.0469 43.4762C16.6094 43.6349 15.3125 43.8095 14.1562 44C13.0312 44.1587 12.1094 44.3175 11.3906 44.4762C10.6719 44.6032 10.2656 44.6825 10.1719 44.7143L8.71875 45L9.32812 48L10.8281 47.6667C10.8281 47.6667 11.2188 47.5873 12 47.4286C12.8125 47.2698 13.8438 47.0952 15.0938 46.9048C16.3438 46.746 17.75 46.5873 19.3125 46.4286C20.875 46.2698 22.4375 46.1905 24 46.1905C25.5625 46.1905 27.125 46.2698 28.6875 46.4286C30.25 46.5873 31.6562 46.746 32.9062 46.9048C34.1562 47.0952 35.1719 47.2698 35.9531 47.4286C36.7656 47.5873 37.1719 47.6667 37.1719 47.6667L38.6719 48L39.2812 45L37.8281 44.7143C37.7656 44.6825 37.3594 44.6032 36.6094 44.4762C35.8906 44.3175 34.9531 44.1587 33.7969 44C32.6719 43.8095 31.3906 43.6349 29.9531 43.4762C28.5156 43.3175 27.0312 43.2222 25.5 43.1905V40.0952H48V2H0V40.0952ZM3 5.04762H45V37.0476H3V5.04762Z" fill="#999999"/>
</svg>
