<svg width="48" height="48" viewBox="0 0 48 48" fill="none" xmlns="http://www.w3.org/2000/svg">
<path d="M46.5 10H35.1094L29.5312 4.46875C29.4062 4.3125 29.25 4.20312 29.0625 4.14062C28.9062 4.04688 28.7188 4 28.5 4H19.5C19.2812 4 19.0781 4.04688 18.8906 4.14062C18.7344 4.20312 18.5938 4.3125 18.4688 4.46875L12.8906 10H1.5C1.0625 10 0.703125 10.1406 0.421875 10.4219C0.140625 10.7031 0 11.0625 0 11.5V44.5C0 44.9375 0.140625 45.2969 0.421875 45.5781C0.703125 45.8594 1.0625 46 1.5 46H46.5C46.9375 46 47.2969 45.8594 47.5781 45.5781C47.8594 45.2969 48 44.9375 48 44.5V11.5C48 11.0625 47.8594 10.7031 47.5781 10.4219C47.2969 10.1406 46.9375 10 46.5 10ZM45 43H3V13H13.5C13.7188 13 13.9062 12.9688 14.0625 12.9062C14.25 12.8125 14.4062 12.6875 14.5312 12.5312L20.1094 7H27.8906L33.4688 12.5312C33.5938 12.6875 33.7344 12.8125 33.8906 12.9062C34.0781 12.9688 34.2812 13 34.5 13H45V43ZM24 16C22.3438 16 20.7812 16.3125 19.3125 16.9375C17.875 17.5625 16.6094 18.4219 15.5156 19.5156C14.4219 20.6094 13.5625 21.8906 12.9375 23.3594C12.3125 24.7969 12 26.3438 12 28C12 29.6562 12.3125 31.2188 12.9375 32.6875C13.5625 34.125 14.4219 35.3906 15.5156 36.4844C16.6094 37.5781 17.875 38.4375 19.3125 39.0625C20.7812 39.6875 22.3438 40 24 40C25.6562 40 27.2031 39.6875 28.6406 39.0625C30.1094 38.4375 31.3906 37.5781 32.4844 36.4844C33.5781 35.3906 34.4375 34.125 35.0625 32.6875C35.6875 31.2188 36 29.6562 36 28C36 26.3438 35.6875 24.7969 35.0625 23.3594C34.4375 21.8906 33.5781 20.6094 32.4844 19.5156C31.3906 18.4219 30.1094 17.5625 28.6406 16.9375C27.2031 16.3125 25.6562 16 24 16ZM24 37C21.5312 37 19.4062 36.125 17.625 34.375C15.875 32.5938 15 30.4688 15 28C15 25.5312 15.875 23.4219 17.625 21.6719C19.4062 19.8906 21.5312 19 24 19C26.4688 19 28.5781 19.8906 30.3281 21.6719C32.1094 23.4219 33 25.5312 33 28C33 30.4688 32.1094 32.5938 30.3281 34.375C28.5781 36.125 26.4688 37 24 37ZM4.5 8.5H9C9.4375 8.5 9.79688 8.35938 10.0781 8.07812C10.3594 7.79688 10.5 7.4375 10.5 7C10.5 6.5625 10.3594 6.20312 10.0781 5.92188C9.79688 5.64062 9.4375 5.5 9 5.5H4.5C4.0625 5.5 3.70312 5.64062 3.42188 5.92188C3.14062 6.20312 3 6.5625 3 7C3 7.4375 3.14062 7.79688 3.42188 8.07812C3.70312 8.35938 4.0625 8.5 4.5 8.5Z" fill="#999999"/>
</svg>
