<svg width="48" height="48" viewBox="0 0 48 48" fill="none" xmlns="http://www.w3.org/2000/svg">
<path d="M46.5 0H1.5C1.0625 0 0.703125 0.140625 0.421875 0.421875C0.140625 0.703125 0 1.0625 0 1.5V46.5C0 46.9375 0.140625 47.2969 0.421875 47.5781C0.703125 47.8594 1.0625 48 1.5 48H46.5C46.9375 48 47.2969 47.8594 47.5781 47.5781C47.8594 47.2969 48 46.9375 48 46.5V1.5C48 1.0625 47.8594 0.703125 47.5781 0.421875C47.2969 0.140625 46.9375 0 46.5 0ZM45 3V6H3V3H45ZM3 45V9H45V45H3ZM24 13.5C22.125 13.5 20.3594 13.8594 18.7031 14.5781C17.0781 15.2656 15.6562 16.2188 14.4375 17.4375C13.2188 18.6562 12.25 20.0938 11.5312 21.75C10.8438 23.375 10.5 25.125 10.5 27C10.5 27.0625 10.5 27.1406 10.5 27.2344C10.5 27.2969 10.5 27.375 10.5 27.4688C10.5 27.5312 10.5 27.625 10.5 27.75C10.5 27.875 10.5 27.9688 10.5 28.0312C10.6562 29.7812 11.1094 31.4062 11.8594 32.9062C12.6406 34.375 13.625 35.6719 14.8125 36.7969C16.0312 37.8906 17.4219 38.7656 18.9844 39.4219C20.5781 40.0469 22.25 40.3594 24 40.3594C25.75 40.3594 27.4062 40.0312 28.9688 39.375C30.5625 38.7188 31.9531 37.8281 33.1406 36.7031C34.3594 35.5781 35.3438 34.2656 36.0938 32.7656C36.875 31.2344 37.3438 29.6094 37.5 27.8906C37.5 27.8281 37.5 27.7656 37.5 27.7031C37.5 27.6094 37.5 27.5312 37.5 27.4688C37.5 27.375 37.5 27.2656 37.5 27.1406C37.5 27.0156 37.5 26.9219 37.5 26.8594C37.5 25.0156 37.1406 23.2812 36.4219 21.6562C35.7344 20.0312 34.7812 18.625 33.5625 17.4375C32.3438 16.2188 30.9062 15.2656 29.25 14.5781C27.625 13.8594 25.875 13.5 24 13.5ZM24 16.5C25.4375 16.5 26.7812 16.7812 28.0312 17.3438C29.3125 17.875 30.4219 18.6094 31.3594 19.5469C32.3281 20.4844 33.0938 21.5938 33.6562 22.875C34.2188 24.1562 34.5 25.5312 34.5 27C31.6562 28.875 29.5781 29.5781 28.2656 29.1094C26.9531 28.6094 25.7344 27.75 24.6094 26.5312C23.4844 25.4062 22.1094 24.4219 20.4844 23.5781C18.8906 22.7031 16.6562 23.0938 13.7812 24.75C14.3125 22.4375 15.5312 20.4844 17.4375 18.8906C19.3438 17.2969 21.5312 16.5 24 16.5ZM24 37.5C22.6875 37.5 21.4375 37.2812 20.25 36.8438C19.0625 36.375 18 35.7344 17.0625 34.9219C16.1562 34.0781 15.3906 33.1094 14.7656 32.0156C14.1719 30.8906 13.7969 29.6719 13.6406 28.3594C16.1094 26.5469 17.9062 25.8438 19.0312 26.25C20.1562 26.625 21.3125 27.375 22.5 28.5C23.25 29.25 24.1406 30.0156 25.1719 30.7969C26.2031 31.5781 27.5156 31.9688 29.1094 31.9688C29.7656 31.9688 30.5 31.8594 31.3125 31.6406C32.125 31.3906 32.9844 31.0469 33.8906 30.6094C33.0781 32.6406 31.7812 34.2969 30 35.5781C28.25 36.8594 26.25 37.5 24 37.5Z" fill="#999999"/>
</svg>
