<svg width="48" height="48" viewBox="0 0 48 48" fill="none" xmlns="http://www.w3.org/2000/svg">
<path d="M43.5 2H4.5C3.25 2 2.1875 2.44722 1.3125 3.34167C0.4375 4.23611 0 5.32222 0 6.6V35.7333C0 37.0111 0.4375 38.0972 1.3125 38.9917C2.1875 39.8861 3.25 40.3333 4.5 40.3333H18V44.9333H12V48H36V44.9333H30V40.3333H43.5C44.75 40.3333 45.8125 39.8861 46.6875 38.9917C47.5625 38.0972 48 37.0111 48 35.7333V6.6C48 5.32222 47.5625 4.23611 46.6875 3.34167C45.8125 2.44722 44.75 2 43.5 2ZM27 44.9333H21V40.3333H27V44.9333ZM45 35.7333C45 36.1486 44.8438 36.516 44.5312 36.8354C44.25 37.1229 43.9062 37.2667 43.5 37.2667H4.5C4.09375 37.2667 3.73438 37.1229 3.42188 36.8354C3.14062 36.516 3 36.1486 3 35.7333V31.1333H45V35.7333ZM3 28.0667V6.6C3 6.18472 3.14062 5.83333 3.42188 5.54583C3.73438 5.22639 4.09375 5.06667 4.5 5.06667H43.5C43.9062 5.06667 44.25 5.22639 44.5312 5.54583C44.8438 5.83333 45 6.18472 45 6.6V28.0667H3ZM21 8.13333H27V11.2H21V8.13333Z" fill="#999999"/>
</svg>
