<svg width="48" height="48" viewBox="0 0 48 48" fill="none" xmlns="http://www.w3.org/2000/svg">
<path d="M7.58333 48H42.4167C42.8785 48 43.2578 47.8594 43.5547 47.5781C43.8516 47.2969 44 46.9375 44 46.5V1.5C44 1.0625 43.8516 0.703125 43.5547 0.421875C43.2578 0.140625 42.8785 0 42.4167 0H7.58333C7.12153 0 6.74219 0.140625 6.44531 0.421875C6.14844 0.703125 6 1.0625 6 1.5V46.5C6 46.9375 6.14844 47.2969 6.44531 47.5781C6.74219 47.8594 7.12153 48 7.58333 48ZM9.16667 3H40.8333V45H9.16667V3ZM25 21C23.4497 21 21.9983 21.2812 20.6458 21.8438C19.3264 22.375 18.1554 23.1094 17.1328 24.0469C16.1432 24.9844 15.3516 26.0938 14.7578 27.375C14.197 28.6562 13.9167 30.0312 13.9167 31.5C13.9167 32.9688 14.197 34.3438 14.7578 35.625C15.3516 36.875 16.1432 37.9844 17.1328 38.9531C18.1224 39.8906 19.2934 40.6406 20.6458 41.2031C21.9983 41.7344 23.4497 42 25 42C26.5503 42 27.9852 41.7344 29.3047 41.2031C30.6571 40.6406 31.8281 39.8906 32.8177 38.9531C33.8403 37.9844 34.6319 36.875 35.1927 35.625C35.7865 34.3438 36.0833 32.9688 36.0833 31.5C36.0833 30.0312 35.7865 28.6719 35.1927 27.4219C34.6319 26.1406 33.8568 25.0312 32.8672 24.0938C31.8776 23.125 30.7066 22.375 29.3542 21.8438C28.0017 21.2812 26.5503 21 25 21ZM25 39C22.7899 39 20.9097 38.2812 19.3594 36.8438C17.842 35.375 17.0833 33.5938 17.0833 31.5C17.0833 29.4062 17.842 27.6406 19.3594 26.2031C20.9097 24.7344 22.7899 24 25 24C27.2101 24 29.0738 24.7344 30.5911 26.2031C32.1415 27.6406 32.9167 29.4062 32.9167 31.5C32.9167 33.5938 32.1415 35.375 30.5911 36.8438C29.0738 38.2812 27.2101 39 25 39ZM25 18C26.7483 18 28.2326 17.4219 29.4531 16.2656C30.7066 15.0781 31.3333 13.6562 31.3333 12C31.3333 10.3438 30.7066 8.9375 29.4531 7.78125C28.2326 6.59375 26.7483 6 25 6C23.2517 6 21.7509 6.59375 20.4974 7.78125C19.2769 8.9375 18.6667 10.3438 18.6667 12C18.6667 13.6562 19.2769 15.0781 20.4974 16.2656C21.7509 17.4219 23.2517 18 25 18ZM25 9C25.8576 9 26.5998 9.29688 27.2266 9.89062C27.8533 10.4844 28.1667 11.1875 28.1667 12C28.1667 12.8125 27.8533 13.5156 27.2266 14.1094C26.5998 14.7031 25.8576 15 25 15C24.1424 15 23.4002 14.7031 22.7734 14.1094C22.1467 13.5156 21.8333 12.8125 21.8333 12C21.8333 11.1875 22.1467 10.4844 22.7734 9.89062C23.4002 9.29688 24.1424 9 25 9ZM28.1667 31.5C28.1667 32.3438 27.8533 33.0625 27.2266 33.6562C26.6328 34.2188 25.8906 34.5 25 34.5C24.1094 34.5 23.3507 34.2188 22.724 33.6562C22.1302 33.0625 21.8333 32.3438 21.8333 31.5C21.8333 30.6562 22.1302 29.9531 22.724 29.3906C23.3507 28.7969 24.1094 28.5 25 28.5C25.8906 28.5 26.6328 28.7969 27.2266 29.3906C27.8533 29.9531 28.1667 30.6562 28.1667 31.5Z" fill="#999999"/>
</svg>
