<svg width="195" height="40" viewBox="0 0 195 40" fill="none" xmlns="http://www.w3.org/2000/svg">
<path d="M101.536 2.456L104.872 11H103.612L102.664 8.384H99.076L98.104 11H96.904L100.264 2.456H101.536ZM102.328 7.484L100.876 3.536L99.4 7.484H102.328ZM106.509 4.808V5.708C106.781 5.34 107.073 5.072 107.385 4.904C107.697 4.736 108.077 4.652 108.525 4.652C109.373 4.652 109.945 5.008 110.241 5.72C110.777 5 111.461 4.64 112.293 4.64C112.933 4.64 113.417 4.82 113.745 5.18C114.081 5.532 114.249 6.028 114.249 6.668V11H113.229V7.1C113.229 6.588 113.149 6.204 112.989 5.948C112.829 5.684 112.497 5.552 111.993 5.552C110.937 5.552 110.409 6.196 110.409 7.484V11H109.389V7.028C109.389 6.556 109.309 6.196 109.149 5.948C108.997 5.692 108.697 5.564 108.249 5.564C107.617 5.564 107.177 5.76 106.929 6.152C106.689 6.536 106.569 7.06 106.569 7.724V11H105.549V4.808H106.509ZM121.072 9.044C120.76 10.484 119.86 11.204 118.372 11.204C117.46 11.204 116.744 10.92 116.224 10.352C115.712 9.784 115.456 8.996 115.456 7.988C115.456 6.988 115.72 6.18 116.248 5.564C116.784 4.94 117.48 4.628 118.336 4.628C119.288 4.628 119.992 4.952 120.448 5.6C120.912 6.24 121.144 7.052 121.144 8.036V8.18H116.488L116.476 8.252C116.476 8.908 116.648 9.424 116.992 9.8C117.336 10.176 117.808 10.364 118.408 10.364C118.856 10.364 119.208 10.26 119.464 10.052C119.728 9.844 119.932 9.508 120.076 9.044H121.072ZM120.088 7.352C120.04 6.76 119.86 6.3 119.548 5.972C119.236 5.636 118.824 5.468 118.312 5.468C117.816 5.468 117.404 5.636 117.076 5.972C116.748 6.308 116.552 6.768 116.488 7.352H120.088ZM125.453 4.664V5.72C125.381 5.712 125.293 5.708 125.189 5.708C124.861 5.708 124.577 5.76 124.337 5.864C124.097 5.96 123.905 6.088 123.761 6.248C123.625 6.408 123.513 6.608 123.425 6.848C123.337 7.088 123.277 7.328 123.245 7.568C123.221 7.808 123.209 8.08 123.209 8.384V11H122.189V4.808H123.161V6.14C123.569 5.156 124.333 4.664 125.453 4.664ZM127.301 2.456V3.704H126.269V2.456H127.301ZM127.301 4.808V11H126.269V4.808H127.301ZM134.209 8.744C134.121 9.488 133.837 10.08 133.357 10.52C132.885 10.96 132.269 11.18 131.509 11.18C130.573 11.18 129.849 10.892 129.337 10.316C128.825 9.732 128.569 8.956 128.569 7.988C128.569 6.956 128.837 6.14 129.373 5.54C129.909 4.932 130.633 4.628 131.545 4.628C132.305 4.628 132.913 4.82 133.369 5.204C133.825 5.58 134.093 6.12 134.173 6.824H133.117C132.933 5.928 132.413 5.48 131.557 5.48C130.965 5.48 130.497 5.7 130.153 6.14C129.809 6.572 129.637 7.16 129.637 7.904C129.637 8.656 129.801 9.248 130.129 9.68C130.457 10.112 130.909 10.328 131.485 10.328C131.949 10.328 132.325 10.192 132.613 9.92C132.909 9.648 133.097 9.256 133.177 8.744H134.209ZM140.811 10.184V10.976C140.603 11.056 140.371 11.096 140.115 11.096C139.531 11.096 139.231 10.792 139.215 10.184C138.631 10.84 137.883 11.168 136.971 11.168C136.363 11.168 135.879 11.012 135.519 10.7C135.167 10.388 134.991 9.96 134.991 9.416C134.991 8.312 135.723 7.668 137.187 7.484C138.051 7.38 138.551 7.304 138.687 7.256C138.975 7.16 139.131 6.96 139.155 6.656C139.163 6.608 139.167 6.556 139.167 6.5C139.167 5.82 138.699 5.48 137.763 5.48C137.283 5.48 136.919 5.58 136.671 5.78C136.423 5.972 136.275 6.292 136.227 6.74H135.231C135.247 6.076 135.483 5.56 135.939 5.192C136.395 4.824 137.023 4.64 137.823 4.64C138.695 4.64 139.343 4.84 139.767 5.24C139.903 5.368 140.003 5.536 140.067 5.744C140.131 5.952 140.167 6.124 140.175 6.26C140.183 6.388 140.187 6.584 140.187 6.848C140.187 7.16 140.179 7.624 140.163 8.24C140.147 8.848 140.139 9.304 140.139 9.608C140.139 9.832 140.167 9.992 140.223 10.088C140.287 10.176 140.399 10.22 140.559 10.22C140.623 10.22 140.707 10.208 140.811 10.184ZM139.167 7.784C139.095 7.84 139.019 7.888 138.939 7.928C138.859 7.968 138.755 8 138.627 8.024C138.507 8.048 138.423 8.068 138.375 8.084C138.335 8.092 138.231 8.108 138.063 8.132C137.895 8.148 137.807 8.156 137.799 8.156C137.551 8.188 137.387 8.212 137.307 8.228C137.235 8.236 137.091 8.268 136.875 8.324C136.667 8.38 136.519 8.444 136.431 8.516C136.343 8.588 136.255 8.696 136.167 8.84C136.087 8.976 136.047 9.14 136.047 9.332C136.047 9.652 136.155 9.904 136.371 10.088C136.595 10.272 136.899 10.364 137.283 10.364C137.771 10.364 138.207 10.22 138.591 9.932C138.975 9.644 139.167 9.304 139.167 8.912V7.784ZM142.732 4.808V5.768C143.244 5.016 143.948 4.64 144.844 4.64C145.572 4.64 146.096 4.832 146.416 5.216C146.744 5.592 146.908 6.148 146.908 6.884V11H145.888V7.352C145.888 7.048 145.876 6.812 145.852 6.644C145.836 6.468 145.788 6.284 145.708 6.092C145.628 5.892 145.492 5.748 145.3 5.66C145.108 5.572 144.86 5.528 144.556 5.528C143.38 5.528 142.792 6.272 142.792 7.76V11H141.772V4.808H142.732ZM157.588 2.456V3.44H153.1V6.104H157.06V7.052H153.1V11H151.972V2.456H157.588ZM159.162 5.516C159.706 4.924 160.446 4.628 161.382 4.628C162.318 4.628 163.046 4.912 163.566 5.48C164.086 6.048 164.346 6.844 164.346 7.868C164.346 8.916 164.086 9.732 163.566 10.316C163.046 10.9 162.314 11.192 161.37 11.192C160.426 11.192 159.686 10.904 159.15 10.328C158.614 9.752 158.346 8.952 158.346 7.928C158.346 6.912 158.618 6.108 159.162 5.516ZM162.774 6.14C162.43 5.7 161.958 5.48 161.358 5.48C160.758 5.48 160.282 5.7 159.93 6.14C159.578 6.58 159.402 7.168 159.402 7.904C159.402 8.664 159.574 9.26 159.918 9.692C160.27 10.116 160.758 10.328 161.382 10.328C161.982 10.328 162.45 10.112 162.786 9.68C163.13 9.248 163.302 8.652 163.302 7.892C163.302 7.156 163.126 6.572 162.774 6.14ZM166.053 5.516C166.597 4.924 167.337 4.628 168.273 4.628C169.209 4.628 169.937 4.912 170.457 5.48C170.977 6.048 171.237 6.844 171.237 7.868C171.237 8.916 170.977 9.732 170.457 10.316C169.937 10.9 169.205 11.192 168.261 11.192C167.317 11.192 166.577 10.904 166.041 10.328C165.505 9.752 165.237 8.952 165.237 7.928C165.237 6.912 165.509 6.108 166.053 5.516ZM169.665 6.14C169.321 5.7 168.849 5.48 168.249 5.48C167.649 5.48 167.173 5.7 166.821 6.14C166.469 6.58 166.293 7.168 166.293 7.904C166.293 8.664 166.465 9.26 166.809 9.692C167.161 10.116 167.649 10.328 168.273 10.328C168.873 10.328 169.341 10.112 169.677 9.68C170.021 9.248 170.193 8.652 170.193 7.892C170.193 7.156 170.017 6.572 169.665 6.14ZM175.104 4.808V5.648H173.868V9.26C173.868 9.46 173.868 9.592 173.868 9.656C173.876 9.72 173.9 9.808 173.94 9.92C173.98 10.024 174.048 10.092 174.144 10.124C174.24 10.156 174.376 10.172 174.552 10.172C174.704 10.172 174.888 10.16 175.104 10.136V11.012C174.816 11.044 174.556 11.06 174.324 11.06C174.036 11.06 173.796 11.028 173.604 10.964C173.412 10.9 173.264 10.828 173.16 10.748C173.064 10.668 172.992 10.528 172.944 10.328C172.896 10.12 172.868 9.948 172.86 9.812C172.852 9.668 172.848 9.432 172.848 9.104C172.848 9.032 172.848 8.976 172.848 8.936V5.648H171.804V4.808H172.848V2.972H173.868V4.808H175.104ZM177.245 2.456V5.66C177.693 4.98 178.377 4.64 179.297 4.64C180.145 4.64 180.821 4.936 181.325 5.528C181.837 6.112 182.093 6.896 182.093 7.88C182.093 8.88 181.833 9.68 181.313 10.28C180.793 10.88 180.101 11.18 179.237 11.18C178.253 11.18 177.569 10.82 177.185 10.1V11H176.225V2.456H177.245ZM179.141 5.504C178.485 5.504 177.997 5.74 177.677 6.212C177.365 6.684 177.209 7.264 177.209 7.952C177.209 8.68 177.381 9.26 177.725 9.692C178.077 10.116 178.549 10.328 179.141 10.328C179.709 10.328 180.165 10.108 180.509 9.668C180.861 9.22 181.037 8.628 181.037 7.892C181.037 7.164 180.865 6.584 180.521 6.152C180.177 5.72 179.717 5.504 179.141 5.504ZM188.834 10.184V10.976C188.626 11.056 188.394 11.096 188.138 11.096C187.554 11.096 187.254 10.792 187.238 10.184C186.654 10.84 185.906 11.168 184.994 11.168C184.386 11.168 183.902 11.012 183.542 10.7C183.19 10.388 183.014 9.96 183.014 9.416C183.014 8.312 183.746 7.668 185.21 7.484C186.074 7.38 186.574 7.304 186.71 7.256C186.998 7.16 187.154 6.96 187.178 6.656C187.186 6.608 187.19 6.556 187.19 6.5C187.19 5.82 186.722 5.48 185.786 5.48C185.306 5.48 184.942 5.58 184.694 5.78C184.446 5.972 184.298 6.292 184.25 6.74H183.254C183.27 6.076 183.506 5.56 183.962 5.192C184.418 4.824 185.046 4.64 185.846 4.64C186.718 4.64 187.366 4.84 187.79 5.24C187.926 5.368 188.026 5.536 188.09 5.744C188.154 5.952 188.19 6.124 188.198 6.26C188.206 6.388 188.21 6.584 188.21 6.848C188.21 7.16 188.202 7.624 188.186 8.24C188.17 8.848 188.162 9.304 188.162 9.608C188.162 9.832 188.19 9.992 188.246 10.088C188.31 10.176 188.422 10.22 188.582 10.22C188.646 10.22 188.73 10.208 188.834 10.184ZM187.19 7.784C187.118 7.84 187.042 7.888 186.962 7.928C186.882 7.968 186.778 8 186.65 8.024C186.53 8.048 186.446 8.068 186.398 8.084C186.358 8.092 186.254 8.108 186.086 8.132C185.918 8.148 185.83 8.156 185.822 8.156C185.574 8.188 185.41 8.212 185.33 8.228C185.258 8.236 185.114 8.268 184.898 8.324C184.69 8.38 184.542 8.444 184.454 8.516C184.366 8.588 184.278 8.696 184.19 8.84C184.11 8.976 184.07 9.14 184.07 9.332C184.07 9.652 184.178 9.904 184.394 10.088C184.618 10.272 184.922 10.364 185.306 10.364C185.794 10.364 186.23 10.22 186.614 9.932C186.998 9.644 187.19 9.304 187.19 8.912V7.784ZM190.875 2.456V11H189.843V2.456H190.875ZM193.536 2.456V11H192.504V2.456H193.536Z" fill="#888888"/>
<path d="M0.209961 16.5046H6.688L10.8065 31.5628L14.5389 16.5046H20.4163L24.2774 31.477L28.3959 16.5046H34.6165L27.6237 38.6415H21.3601L17.4132 23.7548L13.5951 38.6415H7.28862L0.209961 16.5046Z" fill="black"/>
<path d="M81.288 16.5046L72.9653 24.6987L82.2748 38.6415H74.8958L68.8039 28.8172L66.3156 31.1338V38.6415H60.3524V8.09599H66.3156V24.4413L74.1236 16.5046H81.288Z" fill="black"/>
<path d="M89.6713 8.09599V13.2441H83.5794V8.09599H89.6713ZM89.6713 16.5046V38.6415H83.5794V16.5046H89.6713Z" fill="black"/>
<path d="M114.254 31.7773C113.567 34.1512 112.295 35.9959 110.435 37.3115C108.605 38.6272 106.417 39.285 103.872 39.285C100.468 39.285 97.7225 38.2268 95.6347 36.1103C93.5754 33.9939 92.5458 31.191 92.5458 27.7017C92.5458 24.2697 93.5897 21.4382 95.6776 19.2073C97.7654 16.9765 100.425 15.8611 103.657 15.8611C107.003 15.8611 109.663 17.0051 111.637 19.2931C113.61 21.5526 114.597 24.6272 114.597 28.5168V29.1175H98.7235C98.7521 31.0337 99.2097 32.4923 100.096 33.4934C101.012 34.4944 102.284 34.9949 103.915 34.9949C106.06 34.9949 107.561 33.9224 108.419 31.7773H114.254ZM108.419 25.2564C108.276 23.7977 107.804 22.6108 107.003 21.6956C106.203 20.7518 105.087 20.2799 103.657 20.2799C102.313 20.2799 101.197 20.7232 100.311 21.6098C99.4242 22.4964 98.8951 23.7119 98.7235 25.2564H108.419Z" fill="black"/>
<path d="M137.867 31.7773C137.18 34.1512 135.908 35.9959 134.049 37.3115C132.218 38.6272 130.03 39.285 127.485 39.285C124.081 39.285 121.336 38.2268 119.248 36.1103C117.188 33.9939 116.159 31.191 116.159 27.7017C116.159 24.2697 117.203 21.4382 119.291 19.2073C121.378 16.9765 124.038 15.8611 127.27 15.8611C130.616 15.8611 133.276 17.0051 135.25 19.2931C137.223 21.5526 138.21 24.6272 138.21 28.5168V29.1175H122.337C122.365 31.0337 122.823 32.4923 123.709 33.4934C124.625 34.4944 125.897 34.9949 127.528 34.9949C129.673 34.9949 131.174 33.9224 132.032 31.7773H137.867ZM132.032 25.2564C131.889 23.7977 131.417 22.6108 130.616 21.6956C129.816 20.7518 128.7 20.2799 127.27 20.2799C125.926 20.2799 124.811 20.7232 123.924 21.6098C123.037 22.4964 122.508 23.7119 122.337 25.2564H132.032Z" fill="black"/>
<path d="M34.8033 31.5741C34.6413 33.5743 34.7302 35.5869 35.0679 37.5651C35.1422 37.9375 35.4333 38.2287 35.8056 38.303C37.1491 38.538 38.511 38.6512 39.8748 38.6408C40.4733 38.6408 41.1184 38.62 41.7952 38.5678C42.4147 38.5203 43.0198 38.449 43.6102 38.3543L35.0169 29.7584C34.923 30.3493 34.8517 30.9546 34.8033 31.5741Z" fill="black"/>
<path d="M56.8537 17.2506C56.7793 16.8782 56.4883 16.587 56.1159 16.5126C54.1383 16.1749 52.1261 16.086 50.1263 16.2482C49.5068 16.2959 48.9016 16.367 48.3109 16.4617L56.9046 25.0573C56.9986 24.4667 57.0697 23.8617 57.1181 23.2421C57.2802 21.2417 57.1914 19.2287 56.8537 17.2506Z" fill="black"/>
<path d="M41.9725 30.0673L41.3074 29.4026L42.6368 28.0727L43.3016 28.7377L44.6313 27.4078L43.3019 26.0782L44.6313 24.7484L45.9608 26.078L47.2901 24.7484L46.6254 24.0835L47.9549 22.7535L48.6197 23.4184L50.6142 21.424L46.1238 16.9331C43.4109 17.6823 41.0969 18.9753 39.3136 20.7591C37.5304 22.5429 36.2373 24.8574 35.4882 27.5709L39.9782 32.0622L41.9725 30.0673Z" fill="black"/>
<path d="M49.949 24.7484L50.6138 25.4133L49.2844 26.7431L48.6197 26.0782L47.2903 27.4078L48.6197 28.7375L47.2903 30.0673L45.9608 28.7377L44.6314 30.0673L45.2962 30.7322L43.9667 32.0622L43.3019 31.3973L41.3074 33.3916L45.7976 37.8826C48.5111 37.1333 50.8245 35.8404 52.6078 34.0566C54.391 32.2727 55.6841 29.9588 56.4332 27.2448L51.9433 22.7535L49.949 24.7484Z" fill="black"/>
</svg>
