<svg width="17" height="5" viewBox="0 0 17 5" fill="none" xmlns="http://www.w3.org/2000/svg">
<path d="M2.125 4.79167C2.71159 4.79167 3.20963 4.59092 3.61914 4.18945C4.03971 3.77712 4.25 3.28342 4.25 2.70833C4.25 2.13325 4.03971 1.64497 3.61914 1.24349C3.20963 0.831163 2.71159 0.625 2.125 0.625C1.53842 0.625 1.03483 0.831163 0.614258 1.24349C0.204752 1.64497 0 2.13325 0 2.70833C0 3.28342 0.204752 3.77712 0.614258 4.18945C1.03483 4.59092 1.53842 4.79167 2.125 4.79167ZM2.125 1.66667C2.41276 1.66667 2.66178 1.76975 2.87207 1.97591C3.08236 2.18207 3.1875 2.42622 3.1875 2.70833C3.1875 2.99045 3.08236 3.23459 2.87207 3.44076C2.66178 3.64692 2.41276 3.75 2.125 3.75C1.83724 3.75 1.58822 3.64692 1.37793 3.44076C1.16765 3.23459 1.0625 2.99045 1.0625 2.70833C1.0625 2.42622 1.16765 2.18207 1.37793 1.97591C1.58822 1.76975 1.83724 1.66667 2.125 1.66667ZM8.5 4.79167C9.08659 4.79167 9.5846 4.59092 9.99413 4.18945C10.4147 3.77712 10.625 3.28342 10.625 2.70833C10.625 2.13325 10.4147 1.64497 9.99413 1.24349C9.5846 0.831163 9.08659 0.625 8.5 0.625C7.91342 0.625 7.40983 0.831163 6.98926 1.24349C6.57976 1.64497 6.375 2.13325 6.375 2.70833C6.375 3.28342 6.57976 3.77712 6.98926 4.18945C7.40983 4.59092 7.91342 4.79167 8.5 4.79167ZM8.5 1.66667C8.78773 1.66667 9.03677 1.76975 9.24706 1.97591C9.45735 2.18207 9.5625 2.42622 9.5625 2.70833C9.5625 2.99045 9.45735 3.23459 9.24706 3.44076C9.03677 3.64692 8.78773 3.75 8.5 3.75C8.21224 3.75 7.96322 3.64692 7.75293 3.44076C7.54265 3.23459 7.4375 2.99045 7.4375 2.70833C7.4375 2.42622 7.54265 2.18207 7.75293 1.97591C7.96322 1.76975 8.21224 1.66667 8.5 1.66667ZM14.875 0.625C14.2884 0.625 13.7848 0.831163 13.3643 1.24349C12.9548 1.64497 12.75 2.13325 12.75 2.70833C12.75 3.28342 12.9548 3.77712 13.3643 4.18945C13.7848 4.59092 14.2884 4.79167 14.875 4.79167C15.4616 4.79167 15.9596 4.59092 16.3691 4.18945C16.7897 3.77712 17 3.28342 17 2.70833C17 2.13325 16.7897 1.64497 16.3691 1.24349C15.9596 0.831163 15.4616 0.625 14.875 0.625ZM14.875 3.75C14.5873 3.75 14.3382 3.64692 14.1279 3.44076C13.9176 3.23459 13.8125 2.99045 13.8125 2.70833C13.8125 2.42622 13.9176 2.18207 14.1279 1.97591C14.3382 1.76975 14.5873 1.66667 14.875 1.66667C15.1627 1.66667 15.4118 1.76975 15.6221 1.97591C15.8324 2.18207 15.9375 2.42622 15.9375 2.70833C15.9375 2.99045 15.8324 3.23459 15.6221 3.44076C15.4118 3.64692 15.1627 3.75 14.875 3.75Z" fill="#191919"></path>
</svg>