<svg width="18" height="19" viewBox="0 0 18 19" fill="none" xmlns="http://www.w3.org/2000/svg">
<path d="M12.6562 10.9883C13.0781 10.5078 13.418 9.96875 13.6758 9.37109C13.9336 8.76172 14.0625 8.11719 14.0625 7.4375V5.1875C14.0625 4.48438 13.9277 3.82812 13.6582 3.21875C13.4004 2.59766 13.043 2.05859 12.5859 1.60156C12.1289 1.14453 11.5898 0.787109 10.9688 0.529297C10.3594 0.259766 9.70312 0.125 9 0.125C8.29688 0.125 7.63477 0.259766 7.01367 0.529297C6.4043 0.787109 5.87109 1.14453 5.41406 1.60156C4.95703 2.05859 4.59375 2.59766 4.32422 3.21875C4.06641 3.82812 3.9375 4.48438 3.9375 5.1875V7.4375C3.9375 8.11719 4.06641 8.76172 4.32422 9.37109C4.58203 9.96875 4.92188 10.5078 5.34375 10.9883C4.58203 11.1406 3.87305 11.416 3.2168 11.8145C2.57227 12.2129 2.00977 12.7051 1.5293 13.291C1.04883 13.8652 0.673828 14.5156 0.404297 15.2422C0.134766 15.9688 0 16.7422 0 17.5625C0 17.7266 0.0527344 17.8613 0.158203 17.9668C0.263672 18.0723 0.398438 18.125 0.5625 18.125H17.4375C17.6016 18.125 17.7363 18.0723 17.8418 17.9668C17.9473 17.8613 18 17.7266 18 17.5625C18 16.7422 17.8652 15.9688 17.5957 15.2422C17.3262 14.5156 16.9512 13.8652 16.4707 13.291C15.9902 12.7051 15.4219 12.2129 14.7656 11.8145C14.1211 11.416 13.418 11.1406 12.6562 10.9883ZM9.79102 13.0625H8.20898L7.875 12.3945C8.03906 12.418 8.21484 12.4414 8.40234 12.4648C8.60156 12.4883 8.80078 12.5 9 12.5C9.19922 12.5 9.39258 12.4883 9.58008 12.4648C9.7793 12.4414 9.96094 12.418 10.125 12.3945L9.79102 13.0625ZM9 1.25C9.55078 1.25 10.0605 1.35547 10.5293 1.56641C11.0098 1.76562 11.4258 2.04102 11.7773 2.39258C12.1406 2.74414 12.4219 3.16016 12.6211 3.64062C12.832 4.12109 12.9375 4.63672 12.9375 5.1875V5.69727C12.5391 5.61523 12.1875 5.46289 11.8828 5.24023C11.5898 5.01758 11.3613 4.73633 11.1973 4.39648C11.1387 4.29102 11.0684 4.20898 10.9863 4.15039C10.9043 4.0918 10.8047 4.0625 10.6875 4.0625C10.5703 4.0625 10.4707 4.0918 10.3887 4.15039C10.3066 4.20898 10.2363 4.29102 10.1777 4.39648C9.89648 4.99414 9.45117 5.46289 8.8418 5.80273C8.23242 6.14258 7.53516 6.3125 6.75 6.3125C6.41016 6.3125 6.11719 6.23633 5.87109 6.08398C5.63672 5.93164 5.36719 5.74414 5.0625 5.52148V5.1875C5.0625 4.63672 5.16211 4.12695 5.36133 3.6582C5.57227 3.17773 5.85352 2.76172 6.20508 2.41016C6.56836 2.04688 6.98438 1.76562 7.45312 1.56641C7.93359 1.35547 8.44922 1.25 9 1.25ZM5.0625 6.92773C5.28516 7.06836 5.53125 7.19141 5.80078 7.29688C6.07031 7.39062 6.38672 7.4375 6.75 7.4375C7.57031 7.4375 8.32617 7.2793 9.01758 6.96289C9.70898 6.64648 10.2656 6.22461 10.6875 5.69727C10.9688 6.00195 11.3027 6.25391 11.6895 6.45312C12.0762 6.65234 12.4922 6.79297 12.9375 6.875V7.4375C12.9375 8.16406 12.7559 8.83203 12.3926 9.44141C12.0293 10.0508 11.5547 10.5254 10.9688 10.8652C10.6875 11.041 10.3828 11.1699 10.0547 11.252C9.72656 11.334 9.39258 11.375 9.05273 11.375C8.50195 11.375 7.98633 11.2754 7.50586 11.0762C7.03711 10.8652 6.62109 10.584 6.25781 10.2324C5.90625 9.88086 5.625 9.46484 5.41406 8.98438C5.21484 8.50391 5.11523 7.98828 5.11523 7.4375V6.92773H5.0625ZM6.41602 11.9375L7.25977 13.6777L6.29297 17H1.125C1.19531 16.3203 1.37695 15.6875 1.66992 15.1016C1.97461 14.5039 2.36133 13.9766 2.83008 13.5195C3.31055 13.0625 3.85547 12.6992 4.46484 12.4297C5.07422 12.1484 5.72461 11.9844 6.41602 11.9375ZM7.48828 17L8.26172 14.1875H9.66797L10.459 17H7.48828ZM11.707 17L10.7402 13.6777L11.584 11.9375C12.2754 11.9844 12.9258 12.1426 13.5352 12.4121C14.1445 12.6816 14.6836 13.0449 15.1523 13.502C15.6211 13.9473 16.002 14.4688 16.2949 15.0664C16.5879 15.6641 16.7637 16.3086 16.8223 17H11.707Z" fill="#191919" />
</svg>
