<svg width="18" height="18" viewBox="0 0 18 18" fill="none" xmlns="http://www.w3.org/2000/svg">
<path d="M17.9638 6.18635C17.9103 6.06584 17.8299 5.9721 17.7228 5.90515C17.6156 5.82481 17.4951 5.78464 17.3612 5.78464H11.9977L9.58708 0.381625C9.53351 0.261112 9.45315 0.16738 9.34602 0.100428C9.23888 0.0334759 9.12505 0 9.00452 0C8.88399 0 8.77016 0.0334759 8.66302 0.100428C8.55588 0.16738 8.47553 0.261112 8.42196 0.381625L6.01138 5.78464H0.647843C0.513922 5.78464 0.393393 5.82481 0.286256 5.90515C0.179119 5.9721 0.0987668 6.06584 0.0451984 6.18635C0.00502204 6.30686 -0.00837007 6.43407 0.00502204 6.56797C0.0318063 6.68849 0.0920707 6.78892 0.185816 6.86926L4.1231 10.8663L2.53613 17.1932C2.49595 17.3271 2.49595 17.4543 2.53613 17.5749C2.5897 17.6954 2.66336 17.7958 2.7571 17.8761C2.86424 17.9431 2.97807 17.9833 3.0986 17.9967C3.23252 18.01 3.35975 17.9833 3.48027 17.9163L9.00452 14.7428L14.5288 17.9163C14.5823 17.9431 14.6359 17.9632 14.6895 17.9766C14.743 17.99 14.7966 17.9967 14.8502 17.9967C14.9171 17.9967 14.9841 17.99 15.0511 17.9766C15.118 17.9498 15.185 17.9163 15.2519 17.8761C15.3457 17.7958 15.4126 17.6954 15.4528 17.5749C15.5064 17.4543 15.5131 17.3271 15.4729 17.1932L13.8859 10.8663L17.8232 6.86926C17.917 6.78892 17.9705 6.68849 17.9839 6.56797C18.0107 6.43407 18.004 6.30686 17.9638 6.18635ZM12.7208 10.2235C12.6405 10.3039 12.5869 10.3976 12.5601 10.5047C12.5333 10.6119 12.5333 10.719 12.5601 10.8261L13.8659 16.0484L9.32593 13.4573C9.27236 13.4305 9.21879 13.4105 9.16522 13.3971C9.11166 13.3837 9.05809 13.377 9.00452 13.377C8.95095 13.377 8.89738 13.3837 8.84381 13.3971C8.79025 13.4105 8.73668 13.4305 8.68311 13.4573L4.14318 16.0484L5.44891 10.8261C5.4757 10.719 5.4757 10.6119 5.44891 10.5047C5.42213 10.3976 5.36856 10.3039 5.28821 10.2235L2.17454 7.07011H6.43323C6.55376 7.07011 6.6676 7.03664 6.77473 6.96969C6.88187 6.90273 6.96222 6.809 7.01579 6.68849L9.00452 2.2295L10.9932 6.68849C11.0468 6.809 11.1272 6.90273 11.2343 6.96969C11.3414 7.03664 11.4553 7.07011 11.5758 7.07011H15.8345L12.7208 10.2235Z" fill="#191919" />
</svg>
