<svg width="14" height="18" viewBox="0 0 14 18" fill="none" xmlns="http://www.w3.org/2000/svg">
<path d="M3.5 6.75C4.46007 6.75 5.28038 6.42188 5.96094 5.76562C6.65365 5.09766 7 4.30078 7 3.375C7 2.44922 6.65365 1.6582 5.96094 1.00195C5.28038 0.333984 4.46007 0 3.5 0C2.53993 0 1.71354 0.333984 1.02083 1.00195C0.340278 1.6582 0 2.44922 0 3.375C0 4.30078 0.340278 5.09766 1.02083 5.76562C1.71354 6.42188 2.53993 6.75 3.5 6.75ZM3.5 1.125C4.1441 1.125 4.69097 1.34766 5.14062 1.79297C5.60243 2.22656 5.83333 2.75391 5.83333 3.375C5.83333 3.99609 5.60243 4.5293 5.14062 4.97461C4.69097 5.4082 4.1441 5.625 3.5 5.625C2.8559 5.625 2.30295 5.4082 1.84115 4.97461C1.39149 4.5293 1.16667 3.99609 1.16667 3.375C1.16667 2.75391 1.39149 2.22656 1.84115 1.79297C2.30295 1.34766 2.8559 1.125 3.5 1.125ZM10.5 18C11.4601 18 12.2804 17.666 12.9609 16.998C13.6536 16.3418 14 15.5508 14 14.625C14 13.6992 13.6536 12.9082 12.9609 12.252C12.2804 11.584 11.4601 11.25 10.5 11.25C9.53993 11.25 8.71354 11.584 8.02083 12.252C7.34028 12.9082 7 13.6992 7 14.625C7 15.5508 7.34028 16.3418 8.02083 16.998C8.71354 17.666 9.53993 18 10.5 18ZM10.5 12.375C11.1441 12.375 11.691 12.5977 12.1406 13.043C12.6024 13.4766 12.8333 14.0039 12.8333 14.625C12.8333 15.2461 12.6024 15.7793 12.1406 16.2246C11.691 16.6582 11.1441 16.875 10.5 16.875C9.8559 16.875 9.30295 16.6582 8.84115 16.2246C8.39149 15.7793 8.16667 15.2461 8.16667 14.625C8.16667 14.0039 8.39149 13.4766 8.84115 13.043C9.30295 12.5977 9.8559 12.375 10.5 12.375ZM1.16667 16.875C1.25174 16.875 1.33681 16.8574 1.42187 16.8223C1.50694 16.7871 1.57378 16.7344 1.6224 16.6641L13.2891 2.03906C13.3863 1.91016 13.4227 1.76953 13.3984 1.61719C13.3863 1.46484 13.3134 1.3418 13.1797 1.24805C13.0582 1.1543 12.9184 1.11914 12.7604 1.14258C12.6024 1.1543 12.4748 1.22461 12.3776 1.35352L0.710937 15.9785C0.613715 16.0957 0.571181 16.2305 0.583333 16.3828C0.607639 16.5352 0.686632 16.6582 0.820312 16.752C0.868924 16.7988 0.923611 16.834 0.984375 16.8574C1.04514 16.8691 1.1059 16.875 1.16667 16.875Z" fill="#191919" />
</svg>
