<svg width="18" height="16" viewBox="0 0 18 16" fill="none" xmlns="http://www.w3.org/2000/svg">
<path d="M17.4375 0H0.5625C0.410156 0 0.275391 0.0595238 0.158203 0.178571C0.0527344 0.285714 0 0.416667 0 0.571429V15.4286C0 15.5833 0.0527344 15.7202 0.158203 15.8393C0.275391 15.9464 0.410156 16 0.5625 16H17.4375C17.5898 16 17.7188 15.9464 17.8242 15.8393C17.9414 15.7202 18 15.5833 18 15.4286V0.571429C18 0.416667 17.9414 0.285714 17.8242 0.178571C17.7188 0.0595238 17.5898 0 17.4375 0ZM16.875 1.14286V2.85714H1.125V1.14286H16.875ZM1.125 4H5.0625V14.8571H1.125V4ZM6.1875 14.8571V4H16.875V14.8571H6.1875Z" fill="#191919" />
</svg>
