<svg width="18" height="19" viewBox="0 0 18 19" fill="none" xmlns="http://www.w3.org/2000/svg">
<path d="M17.4375 9.6875C17.4375 9.52344 17.3848 9.38867 17.2793 9.2832C17.1738 9.17773 17.0391 9.125 16.875 9.125C16.1953 9.125 15.5566 8.92578 14.959 8.52734C14.3613 8.12891 14.0625 7.57812 14.0625 6.875V5.1875C14.0625 4.48438 13.9277 3.82812 13.6582 3.21875C13.4004 2.59766 13.043 2.05859 12.5859 1.60156C12.1289 1.14453 11.5898 0.787109 10.9688 0.529297C10.3594 0.259766 9.70312 0.125 9 0.125C8.29688 0.125 7.63477 0.259766 7.01367 0.529297C6.4043 0.787109 5.87109 1.14453 5.41406 1.60156C4.95703 2.05859 4.59375 2.59766 4.32422 3.21875C4.06641 3.82812 3.9375 4.48438 3.9375 5.1875V6.875C3.9375 7.57812 3.63867 8.12891 3.04102 8.52734C2.44336 8.92578 1.80469 9.125 1.125 9.125C0.960938 9.125 0.826172 9.17773 0.720703 9.2832C0.615234 9.38867 0.5625 9.52344 0.5625 9.6875C0.5625 10.4727 0.697266 11.123 0.966797 11.6387C1.23633 12.1543 1.57031 12.5527 1.96875 12.834C1.34766 13.4316 0.861328 14.1406 0.509766 14.9609C0.169922 15.7695 0 16.6367 0 17.5625C0 17.7266 0.0527344 17.8613 0.158203 17.9668C0.263672 18.0723 0.398438 18.125 0.5625 18.125H17.4375C17.6016 18.125 17.7363 18.0723 17.8418 17.9668C17.9473 17.8613 18 17.7266 18 17.5625C18 16.6367 17.8242 15.7695 17.4727 14.9609C17.1328 14.1406 16.6523 13.4316 16.0312 12.834C16.4297 12.5527 16.7637 12.1543 17.0332 11.6387C17.3027 11.123 17.4375 10.4727 17.4375 9.6875ZM16.2598 10.1973C16.1777 10.7832 16.0195 11.2168 15.7852 11.498C15.5508 11.7793 15.334 11.9609 15.1348 12.043C14.7715 11.7969 14.3789 11.5801 13.957 11.3926C13.5352 11.1934 13.084 11.0352 12.6035 10.918C12.8496 10.6367 13.0781 10.332 13.2891 10.0039C13.5 9.67578 13.6641 9.32422 13.7812 8.94922C14.1211 9.28906 14.502 9.57031 14.9238 9.79297C15.3574 10.0039 15.8027 10.1387 16.2598 10.1973ZM5.0625 6.92773C5.28516 7.06836 5.53125 7.19141 5.80078 7.29688C6.07031 7.39062 6.38672 7.4375 6.75 7.4375C7.57031 7.4375 8.32617 7.2793 9.01758 6.96289C9.70898 6.64648 10.2656 6.22461 10.6875 5.69727C10.9688 6.00195 11.3027 6.25391 11.6895 6.45312C12.0762 6.65234 12.4922 6.79297 12.9375 6.875V7.4375C12.9375 7.98828 12.832 8.50391 12.6211 8.98438C12.4219 9.45312 12.1465 9.86914 11.7949 10.2324C11.4434 10.584 11.0273 10.8652 10.5469 11.0762C10.0664 11.2754 9.55078 11.375 9 11.375C8.44922 11.375 7.93359 11.2754 7.45312 11.0762C6.98438 10.8652 6.56836 10.584 6.20508 10.2324C5.85352 9.88086 5.57227 9.46484 5.36133 8.98438C5.16211 8.50391 5.0625 7.98828 5.0625 7.4375V6.92773ZM6.1875 11.9902C6.26953 11.9902 6.35156 11.9902 6.43359 11.9902C6.52734 11.9902 6.61523 11.9902 6.69727 11.9902C6.86133 12.0723 7.02539 12.1484 7.18945 12.2188C7.36523 12.2773 7.53516 12.3359 7.69922 12.3945L6.1875 12.834V11.9902ZM11.3027 11.9375C11.3848 11.9375 11.4668 11.9375 11.5488 11.9375C11.6426 11.9375 11.7305 11.9375 11.8125 11.9375V12.834L10.3008 12.3242C10.4648 12.2773 10.6289 12.2246 10.793 12.166C10.9688 12.0957 11.1387 12.0195 11.3027 11.9375ZM9 1.25C9.55078 1.25 10.0605 1.35547 10.5293 1.56641C11.0098 1.76562 11.4258 2.04102 11.7773 2.39258C12.1406 2.74414 12.4219 3.16016 12.6211 3.64062C12.832 4.12109 12.9375 4.63672 12.9375 5.1875V5.69727C12.5391 5.61523 12.1875 5.46289 11.8828 5.24023C11.5898 5.01758 11.3613 4.73633 11.1973 4.39648C11.1387 4.29102 11.0684 4.20898 10.9863 4.15039C10.9043 4.0918 10.8047 4.0625 10.6875 4.0625C10.5703 4.0625 10.4707 4.0918 10.3887 4.15039C10.3066 4.20898 10.2363 4.29102 10.1777 4.39648C9.89648 4.99414 9.45117 5.46289 8.8418 5.80273C8.23242 6.14258 7.53516 6.3125 6.75 6.3125C6.41016 6.3125 6.11719 6.23633 5.87109 6.08398C5.63672 5.93164 5.36719 5.74414 5.0625 5.52148V5.1875C5.0625 4.63672 5.16211 4.12695 5.36133 3.6582C5.57227 3.17773 5.85352 2.76172 6.20508 2.41016C6.56836 2.04688 6.98438 1.76562 7.45312 1.56641C7.93359 1.35547 8.44922 1.25 9 1.25ZM4.16602 9.01953C4.27148 9.38281 4.42969 9.73438 4.64062 10.0742C4.85156 10.4023 5.08594 10.707 5.34375 10.9883C4.89844 11.0703 4.46484 11.2109 4.04297 11.4102C3.62109 11.5977 3.21094 11.832 2.8125 12.1133C2.61328 12.0195 2.39062 11.832 2.14453 11.5508C1.89844 11.2695 1.74609 10.8359 1.6875 10.25C2.16797 10.168 2.61914 10.0215 3.04102 9.81055C3.47461 9.58789 3.84961 9.32422 4.16602 9.01953ZM5.0625 12.2188V13.625C5.0625 13.707 5.08594 13.7891 5.13281 13.8711C5.17969 13.9531 5.23242 14.0234 5.29102 14.082C5.37305 14.1289 5.45508 14.1582 5.53711 14.1699C5.61914 14.1699 5.70703 14.1582 5.80078 14.1348L8.4375 13.2383V17H1.125C1.19531 16.4375 1.3418 15.9043 1.56445 15.4004C1.78711 14.8848 2.06836 14.4219 2.4082 14.0117C2.75977 13.5898 3.1582 13.2266 3.60352 12.9219C4.06055 12.6055 4.54688 12.3711 5.0625 12.2188ZM9.5625 13.291L12.1992 14.1875C12.2344 14.1875 12.2637 14.1992 12.2871 14.2227C12.3223 14.2344 12.3516 14.2402 12.375 14.2402C12.4336 14.2402 12.4863 14.2285 12.5332 14.2051C12.5918 14.1816 12.6504 14.1582 12.709 14.1348C12.791 14.0762 12.8496 14.0059 12.8848 13.9238C12.9199 13.8418 12.9375 13.7598 12.9375 13.6777V12.2715C13.4531 12.4473 13.9336 12.6875 14.3789 12.9922C14.8359 13.2969 15.2344 13.6602 15.5742 14.082C15.9258 14.4922 16.2129 14.9492 16.4355 15.4531C16.6582 15.957 16.8047 16.4902 16.875 17.0527H9.5625V13.291Z" fill="#191919" />
</svg>
