<svg width="174" height="39" viewBox="0 0 174 39" fill="none" xmlns="http://www.w3.org/2000/svg">
<path d="M42.458 25.4436C41.7399 25.696 41.037 26.002 40.3527 26.3408C40.7849 26.1306 41.412 25.8536 42.458 25.4436Z" fill="#FABF00"/>
<path d="M39.2875 26.906C39.4141 26.8408 39.5285 26.7773 39.6501 26.7098C39.7074 26.678 39.7664 26.6453 39.829 26.6111C39.6468 26.7076 39.4663 26.8054 39.2875 26.906Z" fill="#FABF00"/>
<path d="M45.518 28.1077L45.5241 28.089L45.5275 28.079C45.5219 28.0959 45.5164 28.1128 45.5111 28.1298C45.5134 28.1224 45.5157 28.1151 45.518 28.1077Z" fill="#FABF00"/>
<path d="M5.039 29.0255C5.00459 28.9928 4.97328 28.9577 4.94175 28.9223L4.94142 28.9219L4.92578 28.9044C4.93219 28.9115 4.93856 28.9187 4.94494 28.9258L4.94659 28.9276C4.9766 28.9612 5.00659 28.9947 5.039 29.0255Z" fill="#FABF00"/>
<path d="M5.81349 29.4859C5.73307 29.459 5.65401 29.4301 5.57827 29.394C5.65401 29.4302 5.73276 29.459 5.81349 29.4859Z" fill="#FABF00"/>
<path d="M16.4974 26.5946C16.1917 26.4916 15.898 26.3952 15.6177 26.305C15.9346 26.4076 16.2313 26.5058 16.4974 26.5946Z" fill="#FABF00"/>
<path d="M4.59328 28.406C4.58161 28.3817 4.56994 28.3574 4.55882 28.3328C4.55582 28.3262 4.55286 28.3196 4.54995 28.3129C4.54482 28.3011 4.53986 28.2892 4.53512 28.2772C4.55252 28.3215 4.57287 28.3637 4.59338 28.4062L4.59328 28.406Z" fill="#FABF00"/>
<path d="M25.0001 8.95085C25.2985 8.95085 25.5925 8.82967 25.8031 8.61768C26.0152 8.40569 26.1364 8.11347 26.1364 7.81505C26.1364 7.51528 26.0152 7.2229 25.8031 7.01092C25.5925 6.80029 25.3001 6.67911 25.0001 6.67911C24.7 6.67911 24.4076 6.80029 24.197 7.01092C23.985 7.22275 23.8637 7.51528 23.8637 7.81505C23.8637 8.11347 23.985 8.40569 24.197 8.61768C24.4076 8.82967 24.7015 8.95085 25.0001 8.95085Z" fill="#FABF00"/>
<path d="M34.4971 12.0888C34.7956 12.0888 35.088 11.9677 35.3001 11.7557C35.5122 11.545 35.6334 11.2513 35.6334 10.953C35.6334 10.6531 35.5122 10.3609 35.3001 10.1503C35.088 9.93827 34.7955 9.81724 34.4971 9.81724C34.1971 9.81724 33.9046 9.93827 33.6925 10.1503C33.4819 10.3609 33.3607 10.6531 33.3607 10.953C33.3607 11.2513 33.4819 11.545 33.6925 11.7557C33.9046 11.9677 34.197 12.0888 34.4971 12.0888Z" fill="#FABF00"/>
<path d="M16.3075 11.7557C16.0954 11.9677 15.8029 12.0888 15.5045 12.0888C15.2044 12.0888 14.9121 11.9677 14.7 11.7557C14.4893 11.545 14.3682 11.2513 14.3682 10.953C14.3682 10.6531 14.4894 10.3609 14.7 10.1503C14.9121 9.93827 15.2044 9.81724 15.5045 9.81724C15.8029 9.81724 16.0954 9.93827 16.3075 10.1503C16.5181 10.3609 16.6409 10.6531 16.6409 10.953C16.6409 11.2513 16.5181 11.545 16.3075 11.7557Z" fill="#FABF00"/>
<path fill-rule="evenodd" clip-rule="evenodd" d="M47.8848 27.5224C47.8848 28.3632 47.6431 29.1482 47.2281 29.814C48.5852 30.1646 50 31.0931 50 33.5548C50 36.5572 47.8254 39 45.1526 39H4.84772C2.17473 39 0 36.5574 0 33.5548C0 31.0937 1.41405 30.165 2.77095 29.8143C2.35599 29.1483 2.11518 28.3632 2.11518 27.5224C2.11518 26.3736 2.56415 25.3286 3.29445 24.5503C2.69371 23.9714 2.31804 23.1608 2.31804 22.263C2.31804 21.6114 2.51638 21.0061 2.85454 20.5016C1.14482 19.4655 0 17.5876 0 15.4473C0 11.2097 2.67813 7.27004 7.54112 4.35356C12.2224 1.54603 18.4228 0 24.9999 0C31.5772 0 37.7774 1.54618 42.4587 4.35356C47.3217 7.27004 49.9998 11.2097 49.9998 15.4471C49.9998 17.5874 48.8549 19.4655 47.1451 20.5016C47.4835 21.0061 47.682 21.6113 47.682 22.263C47.682 23.1606 47.3063 23.9713 46.7057 24.5501C47.4362 25.3284 47.8848 26.3737 47.8848 27.5224ZM4.84772 36.7284H45.1526C46.5722 36.7284 47.7273 35.3048 47.7273 33.5548C47.7273 32.5389 47.5482 31.8732 45.1526 31.8732H32.7474C31.6105 32.9665 30.9402 33.7453 30.9216 33.7672C30.7054 34.0209 30.3888 34.1667 30.0563 34.1667C30.048 34.1667 30.0398 34.1667 30.0315 34.1665C29.6898 34.159 29.3695 33.9985 29.1595 33.7291C28.652 33.0777 28.0076 32.4584 27.2699 31.8732H4.84772C2.45199 31.8732 2.27269 32.5391 2.27269 33.5548C2.27269 35.3048 3.42778 36.7284 4.84772 36.7284ZM35.3315 29.6016H43.532C44.679 29.6016 45.6121 28.6689 45.6121 27.5224C45.6121 26.3761 44.679 25.4436 43.532 25.4436H42.458C39.7841 26.3837 37.3028 28.0237 35.3315 29.6016ZM5.50017 23.172H44.5C45.0014 23.172 45.4093 22.7642 45.4093 22.263C45.4093 21.7618 45.0014 21.354 44.5 21.354H5.50017C4.9986 21.354 4.59073 21.7618 4.59073 22.263C4.59073 22.7643 4.99874 23.172 5.50017 23.172ZM12.6942 25.4436H6.46797C5.32103 25.4436 4.38787 26.3761 4.38787 27.5224C4.38787 28.6689 5.32103 29.6016 6.46797 29.6016H23.6962C19.0737 27.1655 13.7636 25.7232 12.6942 25.4436ZM8.71058 6.30166C4.55899 8.79129 2.27269 12.0393 2.27269 15.4473C2.27269 17.4514 3.90397 19.0821 5.90909 19.0822H44.0909C46.096 19.0822 47.7273 17.4516 47.7273 15.4473C47.7273 12.0393 45.441 8.79129 41.2896 6.30166C36.9563 3.70309 31.1713 2.2719 25.0001 2.2719C18.8289 2.2719 13.0437 3.70309 8.71058 6.30166Z" fill="#FABF00"/>
<path d="M89.6056 9.9375L85.9874 30.9688L77.2047 31.1562L75.3183 20.5625L73.4319 30.3438L64.6492 30.6562L61 10.5625L68.6694 9.875L70.2157 22.2188L72.2876 10.8125H78.318L80.7302 22.375L81.9672 9.25L89.6056 9.9375Z" fill="#FABF00"/>
<path d="M109.119 19.6562C109.119 20.6042 109.011 21.5208 108.795 22.4062C108.578 23.2812 108.264 24.1042 107.851 24.875C107.449 25.6458 106.955 26.3542 106.367 27C105.79 27.6354 105.135 28.1823 104.403 28.6406C103.682 29.099 102.893 29.4583 102.037 29.7188C101.182 29.9688 100.275 30.0938 99.3161 30.0938C98.3883 30.0938 97.5018 29.974 96.6565 29.7344C95.8216 29.4948 95.0381 29.1615 94.3062 28.7344C93.5743 28.2969 92.9095 27.776 92.3116 27.1719C91.724 26.5573 91.2189 25.8802 90.7962 25.1406C90.3839 24.3906 90.0592 23.5885 89.8221 22.7344C89.5953 21.8802 89.4819 20.9896 89.4819 20.0625C89.4819 19.1562 89.5902 18.2708 89.8067 17.4062C90.0231 16.5312 90.3324 15.7083 90.7344 14.9375C91.1467 14.1667 91.6415 13.4583 92.2188 12.8125C92.7961 12.1667 93.4403 11.6094 94.1516 11.1406C94.8732 10.6719 95.6515 10.3073 96.4865 10.0469C97.3214 9.78646 98.2028 9.65625 99.1305 9.65625C100.625 9.65625 101.986 9.89062 103.213 10.3594C104.45 10.8281 105.501 11.5 106.367 12.375C107.243 13.2396 107.918 14.2917 108.393 15.5312C108.877 16.7604 109.119 18.1354 109.119 19.6562ZM102.254 20.0625C102.254 19.6146 102.187 19.1823 102.053 18.7656C101.929 18.3385 101.744 17.9635 101.496 17.6406C101.249 17.3073 100.94 17.0417 100.569 16.8438C100.208 16.6354 99.7903 16.5312 99.3161 16.5312C98.8316 16.5312 98.3987 16.6198 98.0172 16.7969C97.6358 16.974 97.306 17.2188 97.0276 17.5312C96.7596 17.8333 96.5535 18.1927 96.4091 18.6094C96.2648 19.0156 96.1927 19.4479 96.1927 19.9062C96.1927 20.3438 96.2545 20.7812 96.3782 21.2188C96.5019 21.6562 96.6875 22.0521 96.9349 22.4062C97.1823 22.7604 97.4864 23.0469 97.8472 23.2656C98.2183 23.4844 98.646 23.5938 99.1305 23.5938C99.615 23.5938 100.048 23.5 100.429 23.3125C100.821 23.1146 101.151 22.8542 101.419 22.5312C101.687 22.1979 101.893 21.8177 102.037 21.3906C102.182 20.9635 102.254 20.5208 102.254 20.0625Z" fill="#FABF00"/>
<path d="M129.05 11.4375L122.216 19.6562L128.494 30.4062L121.319 31.6875L116.619 25.25L116.371 31.375L109.939 31.625L110.434 9.25L117.639 9.65625L117.083 16.0938L121.567 9.5625L129.05 11.4375Z" fill="#FABF00"/>
<path d="M137.199 9.625L136.117 30.9062L129.592 31.25L128.973 10.0625L137.199 9.625Z" fill="#FABF00"/>
<path d="M155.723 19C155.723 19.9062 155.661 20.8125 155.538 21.7188C153.775 21.8333 152.023 22.0208 150.281 22.2812C148.538 22.5312 146.796 22.7812 145.054 23.0312C145.322 23.7812 145.74 24.3802 146.307 24.8281C146.884 25.276 147.569 25.5 148.363 25.5C148.775 25.5 149.224 25.4219 149.708 25.2656C150.203 25.1094 150.693 24.9167 151.177 24.6875C151.662 24.4479 152.126 24.1927 152.569 23.9219C153.012 23.651 153.394 23.4062 153.713 23.1875L152.971 30.2812C152.569 30.5938 152.131 30.8594 151.657 31.0781C151.193 31.2969 150.708 31.474 150.203 31.6094C149.698 31.7448 149.188 31.8438 148.672 31.9062C148.157 31.9688 147.652 32 147.157 32C146.137 32 145.204 31.8594 144.358 31.5781C143.513 31.2969 142.745 30.9062 142.054 30.4062C141.374 29.8958 140.776 29.2969 140.261 28.6094C139.745 27.9219 139.318 27.1719 138.977 26.3594C138.637 25.5469 138.38 24.6875 138.204 23.7812C138.029 22.875 137.941 21.9583 137.941 21.0312C137.941 20.0625 138.029 19.0938 138.204 18.125C138.38 17.1562 138.642 16.224 138.993 15.3281C139.354 14.4323 139.802 13.6042 140.338 12.8438C140.884 12.0729 141.518 11.401 142.24 10.8281C142.962 10.2552 143.776 9.80729 144.683 9.48438C145.601 9.16146 146.611 9 147.714 9C148.631 9 149.466 9.13021 150.219 9.39062C150.981 9.64062 151.657 9.99479 152.244 10.4531C152.842 10.901 153.358 11.4375 153.791 12.0625C154.234 12.6875 154.595 13.375 154.873 14.125C155.162 14.8646 155.373 15.651 155.507 16.4844C155.651 17.3073 155.723 18.1458 155.723 19ZM149.538 18.1875C149.538 17.8958 149.507 17.599 149.446 17.2969C149.384 16.9844 149.281 16.7031 149.136 16.4531C149.002 16.2031 148.822 16 148.595 15.8438C148.368 15.6771 148.085 15.5938 147.745 15.5938C147.332 15.5938 146.966 15.7083 146.647 15.9375C146.338 16.1562 146.07 16.4375 145.843 16.7812C145.616 17.1146 145.43 17.4792 145.286 17.875C145.142 18.2708 145.034 18.6354 144.961 18.9688L149.538 18.5312V18.1875Z" fill="#FABF00"/>
<path d="M174 19C174 19.9062 173.938 20.8125 173.814 21.7188C172.052 21.8333 170.299 22.0208 168.557 22.2812C166.815 22.5312 165.073 22.7812 163.331 23.0312C163.599 23.7812 164.016 24.3802 164.583 24.8281C165.161 25.276 165.846 25.5 166.64 25.5C167.052 25.5 167.501 25.4219 167.985 25.2656C168.48 25.1094 168.97 24.9167 169.454 24.6875C169.939 24.4479 170.402 24.1927 170.846 23.9219C171.289 23.651 171.67 23.4062 171.99 23.1875L171.248 30.2812C170.846 30.5938 170.408 30.8594 169.933 31.0781C169.469 31.2969 168.985 31.474 168.48 31.6094C167.975 31.7448 167.465 31.8438 166.949 31.9062C166.434 31.9688 165.929 32 165.434 32C164.413 32 163.48 31.8594 162.635 31.5781C161.79 31.2969 161.022 30.9062 160.331 30.4062C159.651 29.8958 159.053 29.2969 158.537 28.6094C158.022 27.9219 157.594 27.1719 157.254 26.3594C156.914 25.5469 156.656 24.6875 156.481 23.7812C156.306 22.875 156.218 21.9583 156.218 21.0312C156.218 20.0625 156.306 19.0938 156.481 18.125C156.656 17.1562 156.919 16.224 157.27 15.3281C157.63 14.4323 158.079 13.6042 158.615 12.8438C159.161 12.0729 159.795 11.401 160.517 10.8281C161.238 10.2552 162.053 9.80729 162.96 9.48438C163.877 9.16146 164.887 9 165.99 9C166.908 9 167.743 9.13021 168.495 9.39062C169.258 9.64062 169.933 9.99479 170.521 10.4531C171.119 10.901 171.634 11.4375 172.067 12.0625C172.51 12.6875 172.871 13.375 173.15 14.125C173.438 14.8646 173.65 15.651 173.784 16.4844C173.928 17.3073 174 18.1458 174 19ZM167.815 18.1875C167.815 17.8958 167.784 17.599 167.722 17.2969C167.66 16.9844 167.557 16.7031 167.413 16.4531C167.279 16.2031 167.099 16 166.872 15.8438C166.645 15.6771 166.362 15.5938 166.021 15.5938C165.609 15.5938 165.243 15.7083 164.924 15.9375C164.614 16.1562 164.346 16.4375 164.119 16.7812C163.893 17.1146 163.707 17.4792 163.563 17.875C163.418 18.2708 163.31 18.6354 163.238 18.9688L167.815 18.5312V18.1875Z" fill="#FABF00"/>
</svg>
