<svg width="132" height="33" viewBox="0 0 132 33" fill="none" xmlns="http://www.w3.org/2000/svg">
<path d="M32.3438 9.384L24.9958 32H22.0038L17.5158 17.128C17.1345 15.8373 16.7531 14.356 16.3718 12.684C15.9611 14.3853 15.5798 15.8667 15.2278 17.128L10.8278 32H7.7478L0.399797 9.384H3.3918L7.7038 23.156C7.9678 23.948 8.4958 25.8987 9.2878 29.008C10.1678 25.488 10.6665 23.508 10.7838 23.068L14.8318 9.384H17.9998L22.3118 23.728C22.5758 24.5787 23.0011 26.3387 23.5878 29.008C24.0571 27.0133 24.5118 25.2827 24.9518 23.816L29.4838 9.384H32.3438ZM44.9811 8.724C48.2371 8.724 50.8184 9.80933 52.7251 11.98C54.6611 14.1507 55.6291 17.084 55.6291 20.78C55.6291 24.4467 54.6757 27.3507 52.7691 29.492C50.8624 31.604 48.2664 32.66 44.9811 32.66C41.6957 32.66 39.0704 31.5893 37.1051 29.448C35.1691 27.2773 34.2011 24.3587 34.2011 20.692C34.2011 17.0547 35.1691 14.1507 37.1051 11.98C39.0704 9.80933 41.6957 8.724 44.9811 8.724ZM50.7011 13.696C49.2637 11.936 47.3424 11.056 44.9371 11.056C42.5317 11.056 40.6104 11.936 39.1731 13.696C37.7357 15.4267 37.0171 17.7587 37.0171 20.692C37.0171 23.684 37.7211 26.0453 39.1291 27.776C40.5664 29.5067 42.5317 30.372 45.0251 30.372C47.4304 30.372 49.3371 29.5067 50.7451 27.776C52.1531 26.0453 52.8571 23.6987 52.8571 20.736C52.8571 17.7733 52.1384 15.4267 50.7011 13.696ZM78.8463 9.384L69.1663 17.7L79.5063 32H76.0303L67.0103 19.592L62.5223 23.42V32H59.8823V0.671999H62.5223V20.428L75.1503 9.384H78.8463ZM84.6103 0.539999V5.072H81.8383V0.539999H84.6103ZM84.6103 9.384V32H81.8383V9.384H84.6103ZM108.747 24.564C108.249 27.116 107.163 29.1253 105.491 30.592C103.819 32.0293 101.678 32.748 99.0674 32.748C95.9287 32.748 93.4061 31.6773 91.4994 29.536C89.6221 27.3947 88.6834 24.5347 88.6834 20.956C88.6834 17.3773 89.6367 14.4587 91.5434 12.2C93.4794 9.912 95.9727 8.768 99.0234 8.768C102.221 8.768 104.67 9.89733 106.371 12.156C108.102 14.4147 108.967 17.216 108.967 20.56V21.352H91.4994C91.4994 23.9627 92.1301 26.148 93.3914 27.908C94.6821 29.6387 96.6034 30.504 99.1554 30.504C102.881 30.504 105.183 28.524 106.063 24.564H108.747ZM106.195 19.108C106.049 16.5853 105.33 14.62 104.039 13.212C102.749 11.7747 101.047 11.056 98.9354 11.056C96.6474 11.056 94.9021 11.804 93.6994 13.3C92.5261 14.796 91.7927 16.732 91.4994 19.108H106.195ZM131.564 24.564C131.065 27.116 129.98 29.1253 128.308 30.592C126.636 32.0293 124.494 32.748 121.884 32.748C118.745 32.748 116.222 31.6773 114.316 29.536C112.438 27.3947 111.5 24.5347 111.5 20.956C111.5 17.3773 112.453 14.4587 114.36 12.2C116.296 9.912 118.789 8.768 121.84 8.768C125.037 8.768 127.486 9.89733 129.188 12.156C130.918 14.4147 131.784 17.216 131.784 20.56V21.352H114.316C114.316 23.9627 114.946 26.148 116.208 27.908C117.498 29.6387 119.42 30.504 121.972 30.504C125.697 30.504 128 28.524 128.88 24.564H131.564ZM129.012 19.108C128.865 16.5853 128.146 14.62 126.856 13.212C125.565 11.7747 123.864 11.056 121.752 11.056C119.464 11.056 117.718 11.804 116.516 13.3C115.342 14.796 114.609 16.732 114.316 19.108H129.012Z" fill="#191919"/>
</svg>
