<svg width="123" height="44" viewBox="0 0 123 44" fill="none" xmlns="http://www.w3.org/2000/svg">
<path d="M0.0576172 43V42.034L0.977617 41.804C1.59095 41.62 1.98962 41.344 2.17362 40.976C2.35762 40.608 2.44962 40.102 2.44962 39.458C2.48028 37.71 2.49562 35.9467 2.49562 34.168C2.49562 32.3587 2.49562 30.5493 2.49562 28.74V26.854C2.49562 25.0753 2.49562 23.2967 2.49562 21.518C2.49562 19.7393 2.48028 17.9607 2.44962 16.182C2.44962 15.538 2.34228 15.0473 2.12762 14.71C1.94362 14.342 1.54495 14.0507 0.931617 13.836L0.0576172 13.56V12.594H11.1436C15.621 12.594 18.8716 13.4373 20.8956 15.124C22.9503 16.78 23.9776 18.9727 23.9776 21.702C23.9776 23.4193 23.5483 25.014 22.6896 26.486C21.8616 27.9273 20.4816 29.0773 18.5496 29.936C16.6176 30.7947 14.011 31.224 10.7296 31.224H9.07362C9.07362 32.512 9.07362 33.846 9.07362 35.226C9.07362 36.5753 9.08895 37.9553 9.11962 39.366C9.11962 40.6233 9.68695 41.39 10.8216 41.666L12.2016 42.034V43H0.0576172ZM9.07362 29.89H11.0056C12.539 29.89 13.781 29.66 14.7316 29.2C15.713 28.7093 16.4336 27.8813 16.8936 26.716C17.3843 25.5507 17.6296 23.9407 17.6296 21.886C17.6296 19.8313 17.369 18.2367 16.8476 17.102C16.357 15.9367 15.6056 15.124 14.5936 14.664C13.5816 14.1733 12.3243 13.928 10.8216 13.928H9.11962C9.08895 16.044 9.07362 18.1907 9.07362 20.368C9.07362 22.5147 9.07362 24.6767 9.07362 26.854V29.89Z" fill="#00AB84"/>
<path d="M25.3936 43V42.126L26.0836 41.942C27.0956 41.6047 27.6016 40.838 27.6016 39.642C27.6016 38.5993 27.6016 37.5567 27.6016 36.514C27.6322 35.4407 27.6476 34.3827 27.6476 33.34V15.86C27.6476 15.216 27.5402 14.7407 27.3256 14.434C27.1109 14.0967 26.6969 13.8513 26.0836 13.698L25.3936 13.514V12.64L33.4436 10.708L34.0416 11.122L33.8576 17.608V39.642C33.8882 40.2553 34.0109 40.7613 34.2256 41.16C34.4709 41.528 34.8849 41.7887 35.4676 41.942L36.1116 42.126V43H25.3936Z" fill="#00AB84"/>
<path d="M44.4149 43.644C42.6669 43.644 41.1796 43.1533 39.9529 42.172C38.7569 41.16 38.1589 39.7187 38.1589 37.848C38.1589 36.376 38.8642 35.0267 40.2749 33.8C41.7162 32.5427 43.9702 31.6227 47.0369 31.04C47.5582 30.9173 48.1562 30.81 48.8309 30.718C49.5362 30.5953 50.2262 30.4727 50.9009 30.35V27.084C50.9009 24.9987 50.6402 23.5573 50.1189 22.76C49.5976 21.9627 48.7696 21.564 47.6349 21.564H47.4969C46.7916 21.564 46.2242 21.794 45.7949 22.254C45.3962 22.6833 45.1356 23.404 45.0129 24.416L44.8749 25.014C44.7829 26.2407 44.4609 27.1453 43.9089 27.728C43.3569 28.28 42.6669 28.556 41.8389 28.556C41.0722 28.556 40.4282 28.326 39.9069 27.866C39.4162 27.3753 39.1709 26.7467 39.1709 25.98C39.1709 24.7227 39.6003 23.6647 40.4589 22.806C41.3176 21.9473 42.4522 21.3033 43.8629 20.874C45.3042 20.4447 46.8529 20.23 48.5089 20.23C51.2382 20.23 53.3236 20.8893 54.7649 22.208C56.2062 23.5267 56.9269 25.6733 56.9269 28.648V38.906C56.9269 40.2247 57.5556 40.884 58.8129 40.884H59.8709L60.3309 41.39C59.7789 42.0953 59.1656 42.632 58.4909 43C57.8162 43.3987 56.8962 43.598 55.7309 43.598C54.4122 43.598 53.3542 43.2913 52.5569 42.678C51.7902 42.034 51.2842 41.1907 51.0389 40.148C50.0576 41.1907 49.0916 42.034 48.1409 42.678C47.1902 43.322 45.9482 43.644 44.4149 43.644ZM47.0829 40.7C47.6962 40.7 48.2789 40.562 48.8309 40.286C49.3829 40.01 50.0729 39.55 50.9009 38.906V31.546C50.1036 31.6687 49.2909 31.822 48.4629 32.006C47.1442 32.3127 46.0709 32.88 45.2429 33.708C44.4456 34.536 44.0469 35.6553 44.0469 37.066C44.0469 38.2927 44.3229 39.2127 44.8749 39.826C45.4576 40.4087 46.1936 40.7 47.0829 40.7Z" fill="#00AB84"/>
<path d="M61.2391 43V42.126L61.9751 41.942C62.9871 41.6353 63.4931 40.884 63.4931 39.688V26.118C63.4624 25.474 63.3551 24.9833 63.1711 24.646C62.9871 24.278 62.5884 24.0327 61.9751 23.91L61.2391 23.726V22.898L68.6911 20.23L69.2431 20.736L69.5651 23.588C70.6691 22.6067 71.8957 21.8093 73.2451 21.196C74.6251 20.552 75.9744 20.23 77.2931 20.23C79.3171 20.23 80.8657 20.782 81.9391 21.886C83.0431 22.99 83.5951 24.6767 83.5951 26.946V39.734C83.5951 40.93 84.147 41.6813 85.2511 41.988L85.7571 42.126V43H75.1771V42.126L75.8671 41.942C76.8791 41.6047 77.3851 40.8533 77.3851 39.688V26.026C77.3851 24.9527 77.1551 24.1707 76.6951 23.68C76.2351 23.1893 75.4684 22.944 74.3951 22.944C72.8924 22.944 71.3284 23.6033 69.7031 24.922V39.734C69.7031 40.93 70.2397 41.6813 71.3131 41.988L71.7731 42.126V43H61.2391Z" fill="#00AB84"/>
<path d="M96.0765 43.644C94.1752 43.644 92.6725 43.184 91.5685 42.264C90.4952 41.3133 89.9585 39.78 89.9585 37.664C89.9585 36.928 89.9585 36.238 89.9585 35.594C89.9892 34.9193 90.0045 34.1373 90.0045 33.248V22.346H86.7385V21.334L87.9805 21.15C88.8698 20.9967 89.6212 20.7207 90.2345 20.322C90.8785 19.9233 91.4612 19.3713 91.9825 18.666L94.9725 14.526H96.3525L96.2145 20.92H101.459V22.346H96.1685V38.032C96.1685 39.136 96.3985 39.964 96.8585 40.516C97.3492 41.068 97.9472 41.344 98.6525 41.344C99.2658 41.344 99.8178 41.206 100.309 40.93C100.799 40.6233 101.29 40.2247 101.781 39.734L102.379 40.424C101.796 41.436 100.983 42.2333 99.9405 42.816C98.8978 43.368 97.6098 43.644 96.0765 43.644Z" fill="#00AB84"/>
<path d="M112.097 43.644C110.625 43.644 109.291 43.4753 108.095 43.138C106.93 42.8313 105.811 42.3867 104.737 41.804V36.376H105.979L107.359 38.998C107.942 40.1327 108.601 40.976 109.337 41.528C110.104 42.08 111.07 42.356 112.235 42.356C113.677 42.356 114.827 42.0493 115.685 41.436C116.544 40.792 116.973 39.9333 116.973 38.86C116.973 37.8787 116.651 37.0813 116.007 36.468C115.363 35.8547 114.213 35.2873 112.557 34.766L110.533 34.122C108.724 33.57 107.283 32.742 106.209 31.638C105.167 30.5033 104.645 29.0927 104.645 27.406C104.645 26.0873 104.998 24.8913 105.703 23.818C106.409 22.714 107.436 21.84 108.785 21.196C110.135 20.552 111.775 20.23 113.707 20.23C114.965 20.23 116.115 20.3833 117.157 20.69C118.231 20.966 119.273 21.3647 120.285 21.886L120.009 26.808H118.813L117.387 24.186C116.897 23.2047 116.391 22.53 115.869 22.162C115.379 21.7633 114.612 21.564 113.569 21.564C112.465 21.564 111.484 21.8553 110.625 22.438C109.797 22.99 109.383 23.772 109.383 24.784C109.383 25.7347 109.736 26.5167 110.441 27.13C111.147 27.7127 112.281 28.2647 113.845 28.786L115.823 29.384C118.062 30.0893 119.657 31.0247 120.607 32.19C121.558 33.3553 122.033 34.7507 122.033 36.376C122.033 38.5533 121.159 40.3167 119.411 41.666C117.694 42.9847 115.256 43.644 112.097 43.644Z" fill="#00AB84"/>
<path d="M49.6159 5.52V5.84C49.2212 5.904 48.9225 5.984 48.7199 6.08C48.5279 6.16533 48.3839 6.28267 48.2879 6.432C48.1919 6.57067 48.0905 6.784 47.9839 7.072L45.4879 14.16H44.7839L42.8479 8.16L40.7359 14.16H40.0319L37.4079 6.528C37.3225 6.272 37.2052 6.10134 37.0559 6.016C36.9172 5.93067 36.6505 5.872 36.2559 5.84V5.52H40.2239V5.84C39.7332 5.872 39.4185 5.90933 39.2799 5.952C39.1412 5.99467 39.0719 6.07467 39.0719 6.192C39.0719 6.24534 39.0879 6.33067 39.1199 6.448C39.1625 6.55467 39.1945 6.64 39.2159 6.704L40.8159 12.016H40.8799L42.5439 7.232L42.3199 6.528C42.2559 6.28267 42.1492 6.11733 41.9999 6.032C41.8612 5.936 41.6372 5.872 41.3279 5.84V5.52H44.9759V5.84C44.4852 5.872 44.1705 5.90933 44.0319 5.952C43.8932 5.99467 43.8239 6.07467 43.8239 6.192C43.8239 6.24534 43.8399 6.33067 43.8719 6.448C43.9145 6.55467 43.9465 6.64 43.9679 6.704L45.5679 12.016H45.6319L47.3599 7.056C47.4559 6.8 47.5039 6.592 47.5039 6.432C47.5039 6.26133 47.4239 6.13867 47.2639 6.064C47.1039 5.97867 46.8052 5.904 46.3679 5.84V5.52H49.6159Z" fill="#191919"/>
<path d="M54.0529 5.36C54.8422 5.36 55.5569 5.552 56.1969 5.936C56.8475 6.30934 57.3542 6.832 57.7169 7.504C58.0795 8.176 58.2609 8.928 58.2609 9.76C58.2609 10.592 58.0795 11.344 57.7169 12.016C57.3542 12.688 56.8475 13.216 56.1969 13.6C55.5569 13.9733 54.8422 14.16 54.0529 14.16C53.2635 14.16 52.5435 13.9733 51.8929 13.6C51.2529 13.216 50.7515 12.688 50.3889 12.016C50.0262 11.344 49.8449 10.592 49.8449 9.76C49.8449 8.928 50.0262 8.176 50.3889 7.504C50.7515 6.832 51.2529 6.30934 51.8929 5.936C52.5435 5.552 53.2635 5.36 54.0529 5.36ZM51.5409 9.76C51.5409 10.912 51.7595 11.8133 52.1969 12.464C52.6449 13.1147 53.2582 13.44 54.0369 13.44C54.8262 13.44 55.4449 13.1147 55.8929 12.464C56.3409 11.8027 56.5649 10.896 56.5649 9.744C56.5649 8.60267 56.3409 7.70667 55.8929 7.056C55.4555 6.40533 54.8422 6.08 54.0529 6.08C53.2635 6.08 52.6449 6.40533 52.1969 7.056C51.7595 7.70667 51.5409 8.608 51.5409 9.76Z" fill="#191919"/>
<path d="M68.7762 13.68V14H65.9762L62.6642 9.968L62.0402 10.688V13.44L63.2402 13.68V14H59.3522V13.68L60.5682 13.44V2.144L59.4002 1.712V1.504L61.8802 0.720001H62.0402V9.824L64.7122 6.8C64.9362 6.544 65.0482 6.352 65.0482 6.224C65.0482 6.128 64.9682 6.05333 64.8082 6C64.6482 5.94667 64.3336 5.89333 63.8642 5.84V5.52H67.4482V5.84C66.7976 5.95733 66.3602 6.06933 66.1362 6.176C65.9122 6.28267 65.6776 6.47467 65.4322 6.752L63.6242 8.864L67.4322 13.44L68.7762 13.68Z" fill="#191919"/>
<path d="M69.8774 2.56C69.8774 2.26133 69.968 2.016 70.1494 1.824C70.3414 1.62133 70.592 1.52 70.9014 1.52C71.2107 1.52 71.4614 1.62133 71.6534 1.824C71.8454 2.016 71.9414 2.26133 71.9414 2.56C71.9414 2.848 71.8454 3.09333 71.6534 3.296C71.4614 3.488 71.2107 3.584 70.9014 3.584C70.592 3.584 70.3414 3.488 70.1494 3.296C69.968 3.09333 69.8774 2.848 69.8774 2.56ZM72.8694 14H68.9334V13.68L70.1494 13.44V6.784L68.9654 6.352V6.128L71.5254 5.36H71.6694V13.44L72.8694 13.68V14Z" fill="#191919"/>
<path d="M75.6022 9.072C75.5916 9.14667 75.5862 9.26933 75.5862 9.44C75.5862 10.6133 75.8209 11.4987 76.2902 12.096C76.7596 12.6933 77.4476 12.992 78.3542 12.992C78.8769 12.992 79.3622 12.9013 79.8102 12.72C80.2582 12.528 80.6209 12.2613 80.8982 11.92L81.0902 11.68L81.3622 11.84L81.2662 12.064C80.9889 12.7147 80.5409 13.2267 79.9222 13.6C79.3036 13.9733 78.6049 14.16 77.8262 14.16C77.0689 14.16 76.3969 13.984 75.8102 13.632C75.2342 13.2693 74.7862 12.768 74.4662 12.128C74.1462 11.4773 73.9862 10.7307 73.9862 9.888C73.9862 9.00267 74.1622 8.21867 74.5142 7.536C74.8769 6.84267 75.3782 6.30934 76.0182 5.936C76.6689 5.552 77.4156 5.36 78.2582 5.36C79.3036 5.36 80.1036 5.66933 80.6582 6.288C81.2236 6.896 81.5169 7.792 81.5382 8.976L81.4262 9.072H75.6022ZM78.1142 5.856C77.4102 5.856 76.8449 6.096 76.4182 6.576C75.9916 7.056 75.7302 7.73867 75.6342 8.624L79.8102 8.48C79.8422 8.352 79.8582 8.13334 79.8582 7.824C79.8582 6.512 79.2769 5.856 78.1142 5.856Z" fill="#191919"/>
<path d="M84.5554 9.072C84.5447 9.14667 84.5394 9.26933 84.5394 9.44C84.5394 10.6133 84.774 11.4987 85.2434 12.096C85.7127 12.6933 86.4007 12.992 87.3074 12.992C87.83 12.992 88.3154 12.9013 88.7634 12.72C89.2114 12.528 89.574 12.2613 89.8514 11.92L90.0434 11.68L90.3154 11.84L90.2194 12.064C89.942 12.7147 89.494 13.2267 88.8754 13.6C88.2567 13.9733 87.558 14.16 86.7794 14.16C86.022 14.16 85.35 13.984 84.7634 13.632C84.1874 13.2693 83.7394 12.768 83.4194 12.128C83.0994 11.4773 82.9394 10.7307 82.9394 9.888C82.9394 9.00267 83.1154 8.21867 83.4674 7.536C83.83 6.84267 84.3314 6.30934 84.9714 5.936C85.622 5.552 86.3687 5.36 87.2114 5.36C88.2567 5.36 89.0567 5.66933 89.6114 6.288C90.1767 6.896 90.47 7.792 90.4914 8.976L90.3794 9.072H84.5554ZM87.0674 5.856C86.3634 5.856 85.798 6.096 85.3714 6.576C84.9447 7.056 84.6834 7.73867 84.5874 8.624L88.7634 8.48C88.7954 8.352 88.8114 8.13334 88.8114 7.824C88.8114 6.512 88.23 5.856 87.0674 5.856Z" fill="#191919"/>
</svg>
