<svg width="280" height="280" viewBox="0 0 280 280" fill="none" xmlns="http://www.w3.org/2000/svg">
<rect width="280" height="280" fill="#056EC9"/>
<rect x="100" y="56" width="80" height="80" fill="#056EC9"/>
<path fill-rule="evenodd" clip-rule="evenodd" d="M151.311 88.4156C151.545 87.0901 151.667 85.726 151.667 84.3333C151.667 71.4467 141.22 61 128.333 61C126.588 61 124.888 61.1916 123.252 61.5549C121.126 62.027 119.109 62.7892 117.245 63.7977L130.752 77.3041C133.361 79.913 133.361 84.1428 130.752 86.7517C128.143 89.3606 123.913 89.3606 121.304 86.7517L107.798 73.2453C106.789 75.1093 106.027 77.1261 105.555 79.252C105.192 80.8878 105 82.5882 105 84.3333C105 97.22 115.447 107.667 128.333 107.667C129.726 107.667 131.09 107.545 132.416 107.311L152.192 127.087C157.409 132.304 165.869 132.304 171.087 127.087C176.304 121.869 176.304 113.409 171.087 108.192L151.311 88.4156ZM110.834 84.5316C110.941 94.1052 118.735 101.833 128.333 101.833C129.385 101.833 130.41 101.741 131.402 101.566L134.393 101.038L156.316 122.962C159.256 125.902 164.022 125.902 166.962 122.962C169.902 120.022 169.902 115.256 166.962 112.316L145.038 90.3928L145.566 87.4019C145.741 86.4096 145.833 85.3846 145.833 84.3333C145.833 74.7345 138.105 66.9407 128.532 66.8344L134.876 73.1793C139.763 78.0662 139.763 85.9895 134.876 90.8765C129.99 95.7634 122.066 95.7634 117.179 90.8765L110.834 84.5316Z" fill="white"/>
<path d="M102.072 162.64H109.032C112.652 162.64 115.322 163.48 117.042 165.16C118.762 166.84 119.622 169.5 119.622 173.14C119.622 176.72 118.822 179.43 117.222 181.27C115.622 183.09 113.062 184 109.542 184H102.072V162.64ZM104.892 165.07V181.57H109.182C111.862 181.57 113.802 180.92 115.002 179.62C116.222 178.3 116.832 176.25 116.832 173.47C116.832 170.55 116.242 168.42 115.062 167.08C113.882 165.74 111.882 165.07 109.062 165.07H104.892ZM130.815 168.16V170.8C130.635 170.78 130.415 170.77 130.155 170.77C129.335 170.77 128.625 170.9 128.025 171.16C127.425 171.4 126.945 171.72 126.585 172.12C126.245 172.52 125.965 173.02 125.745 173.62C125.525 174.22 125.375 174.82 125.295 175.42C125.235 176.02 125.205 176.7 125.205 177.46V184H122.655V168.52H125.085V171.85C126.105 169.39 128.015 168.16 130.815 168.16ZM133.438 170.29C134.798 168.81 136.648 168.07 138.988 168.07C141.328 168.07 143.148 168.78 144.448 170.2C145.748 171.62 146.398 173.61 146.398 176.17C146.398 178.79 145.748 180.83 144.448 182.29C143.148 183.75 141.318 184.48 138.958 184.48C136.598 184.48 134.748 183.76 133.408 182.32C132.068 180.88 131.398 178.88 131.398 176.32C131.398 173.78 132.078 171.77 133.438 170.29ZM142.468 171.85C141.608 170.75 140.428 170.2 138.928 170.2C137.428 170.2 136.238 170.75 135.358 171.85C134.478 172.95 134.038 174.42 134.038 176.26C134.038 178.16 134.468 179.65 135.328 180.73C136.208 181.79 137.428 182.32 138.988 182.32C140.488 182.32 141.658 181.78 142.498 180.7C143.358 179.62 143.788 178.13 143.788 176.23C143.788 174.39 143.348 172.93 142.468 171.85ZM151.835 168.52V170.92C153.115 169.04 154.875 168.1 157.115 168.1C158.935 168.1 160.245 168.58 161.045 169.54C161.865 170.48 162.275 171.87 162.275 173.71V184H159.725V174.88C159.725 174.12 159.695 173.53 159.635 173.11C159.595 172.67 159.475 172.21 159.275 171.73C159.075 171.23 158.735 170.87 158.255 170.65C157.775 170.43 157.155 170.32 156.395 170.32C153.455 170.32 151.985 172.18 151.985 175.9V184H149.435V168.52H151.835ZM179.335 179.11C178.555 182.71 176.305 184.51 172.585 184.51C170.305 184.51 168.515 183.8 167.215 182.38C165.935 180.96 165.295 178.99 165.295 176.47C165.295 173.97 165.955 171.95 167.275 170.41C168.615 168.85 170.355 168.07 172.495 168.07C174.875 168.07 176.635 168.88 177.775 170.5C178.935 172.1 179.515 174.13 179.515 176.59V176.95H167.875L167.845 177.13C167.845 178.77 168.275 180.06 169.135 181C169.995 181.94 171.175 182.41 172.675 182.41C173.795 182.41 174.675 182.15 175.315 181.63C175.975 181.11 176.485 180.27 176.845 179.11H179.335ZM176.875 174.88C176.755 173.4 176.305 172.25 175.525 171.43C174.745 170.59 173.715 170.17 172.435 170.17C171.195 170.17 170.165 170.59 169.345 171.43C168.525 172.27 168.035 173.42 167.875 174.88H176.875ZM91.2763 193.64H100.666C105.446 193.64 107.836 195.61 107.836 199.55C107.836 200.79 107.496 201.89 106.816 202.85C106.156 203.79 105.276 204.42 104.176 204.74C104.896 204.9 105.476 205.13 105.916 205.43C106.356 205.73 106.676 206.15 106.876 206.69C107.076 207.23 107.206 207.71 107.266 208.13C107.326 208.55 107.376 209.17 107.416 209.99C107.416 210.07 107.426 210.27 107.446 210.59C107.466 210.89 107.476 211.1 107.476 211.22C107.476 211.32 107.486 211.51 107.506 211.79C107.546 212.07 107.576 212.28 107.596 212.42C107.616 212.56 107.646 212.75 107.686 212.99C107.726 213.23 107.776 213.43 107.836 213.59C107.896 213.73 107.966 213.9 108.046 214.1C108.126 214.28 108.216 214.45 108.316 214.61C108.416 214.75 108.526 214.88 108.646 215H105.406C105.266 214.8 105.146 214.55 105.046 214.25C104.966 213.95 104.906 213.6 104.866 213.2C104.826 212.78 104.796 212.45 104.776 212.21C104.756 211.95 104.736 211.58 104.716 211.1C104.696 210.62 104.686 210.35 104.686 210.29C104.586 208.47 104.206 207.26 103.546 206.66C102.906 206.06 101.626 205.76 99.7063 205.76H94.0963V215H91.2763V193.64ZM94.0963 196.04V203.51H99.4063C100.066 203.51 100.616 203.49 101.056 203.45C101.516 203.41 102.016 203.32 102.556 203.18C103.096 203.04 103.526 202.84 103.846 202.58C104.186 202.32 104.466 201.95 104.686 201.47C104.906 200.99 105.016 200.41 105.016 199.73C105.016 198.29 104.576 197.32 103.696 196.82C102.836 196.3 101.656 196.04 100.156 196.04H94.0963ZM124.593 210.11C123.813 213.71 121.563 215.51 117.843 215.51C115.563 215.51 113.773 214.8 112.473 213.38C111.193 211.96 110.553 209.99 110.553 207.47C110.553 204.97 111.213 202.95 112.533 201.41C113.873 199.85 115.613 199.07 117.753 199.07C120.133 199.07 121.893 199.88 123.033 201.5C124.193 203.1 124.773 205.13 124.773 207.59V207.95H113.133L113.103 208.13C113.103 209.77 113.533 211.06 114.393 212C115.253 212.94 116.433 213.41 117.933 213.41C119.053 213.41 119.933 213.15 120.573 212.63C121.233 212.11 121.743 211.27 122.103 210.11H124.593ZM122.133 205.88C122.013 204.4 121.563 203.25 120.783 202.43C120.003 201.59 118.973 201.17 117.693 201.17C116.453 201.17 115.423 201.59 114.603 202.43C113.783 203.27 113.293 204.42 113.133 205.88H122.133ZM129.877 199.52V201.71C130.997 199.93 132.737 199.04 135.097 199.04C137.257 199.04 138.967 199.77 140.227 201.23C141.507 202.69 142.147 204.67 142.147 207.17C142.147 209.67 141.517 211.67 140.257 213.17C139.017 214.65 137.337 215.39 135.217 215.39C132.997 215.39 131.267 214.54 130.027 212.84V220.97H127.477V199.52H129.877ZM134.707 201.17C133.227 201.17 132.057 201.71 131.197 202.79C130.357 203.85 129.937 205.32 129.937 207.2C129.937 209.08 130.367 210.56 131.227 211.64C132.107 212.7 133.297 213.23 134.797 213.23C136.257 213.23 137.407 212.69 138.247 211.61C139.087 210.53 139.507 209.06 139.507 207.2C139.507 205.32 139.077 203.85 138.217 202.79C137.377 201.71 136.207 201.17 134.707 201.17ZM158.97 212.96V214.94C158.45 215.14 157.87 215.24 157.23 215.24C155.77 215.24 155.02 214.48 154.98 212.96C153.52 214.6 151.65 215.42 149.37 215.42C147.85 215.42 146.64 215.03 145.74 214.25C144.86 213.47 144.42 212.4 144.42 211.04C144.42 208.28 146.25 206.67 149.91 206.21C150.15 206.17 150.5 206.13 150.96 206.09C152.7 205.89 153.77 205.66 154.17 205.4C154.63 205.08 154.86 204.53 154.86 203.75C154.86 202.05 153.69 201.2 151.35 201.2C150.15 201.2 149.24 201.45 148.62 201.95C148 202.43 147.63 203.23 147.51 204.35H145.02C145.06 202.69 145.65 201.4 146.79 200.48C147.93 199.56 149.5 199.1 151.5 199.1C153.68 199.1 155.3 199.6 156.36 200.6C156.7 200.92 156.95 201.34 157.11 201.86C157.27 202.38 157.36 202.81 157.38 203.15C157.4 203.47 157.41 203.96 157.41 204.62C157.41 205.38 157.39 206.53 157.35 208.07C157.31 209.61 157.29 210.76 157.29 211.52C157.29 212.08 157.36 212.48 157.5 212.72C157.66 212.94 157.94 213.05 158.34 213.05C158.5 213.05 158.71 213.02 158.97 212.96ZM154.86 206.96C154.68 207.1 154.49 207.22 154.29 207.32C154.09 207.42 153.83 207.5 153.51 207.56C153.21 207.62 153 207.67 152.88 207.71C152.78 207.73 152.52 207.77 152.1 207.83C151.68 207.87 151.46 207.89 151.44 207.89C150.82 207.97 150.41 208.03 150.21 208.07C150.03 208.09 149.67 208.17 149.13 208.31C148.61 208.45 148.24 208.61 148.02 208.79C147.8 208.97 147.58 209.24 147.36 209.6C147.16 209.94 147.06 210.35 147.06 210.83C147.06 211.63 147.33 212.26 147.87 212.72C148.43 213.18 149.19 213.41 150.15 213.41C151.37 213.41 152.46 213.05 153.42 212.33C154.38 211.61 154.86 210.76 154.86 209.78V206.96ZM164.073 193.64V196.76H161.493V193.64H164.073ZM164.073 199.52V215H161.493V199.52H164.073ZM176.094 199.16V201.8C175.914 201.78 175.694 201.77 175.434 201.77C174.614 201.77 173.904 201.9 173.304 202.16C172.704 202.4 172.224 202.72 171.864 203.12C171.524 203.52 171.244 204.02 171.024 204.62C170.804 205.22 170.654 205.82 170.574 206.42C170.514 207.02 170.484 207.7 170.484 208.46V215H167.934V199.52H170.364V202.85C171.384 200.39 173.294 199.16 176.094 199.16ZM189.504 204.02H186.954C186.794 202.14 185.534 201.2 183.174 201.2C182.194 201.2 181.424 201.39 180.864 201.77C180.304 202.15 180.024 202.66 180.024 203.3C180.024 203.48 180.044 203.66 180.084 203.84C180.124 204 180.194 204.15 180.294 204.29C180.414 204.41 180.514 204.52 180.594 204.62C180.694 204.72 180.844 204.82 181.044 204.92C181.264 205 181.424 205.07 181.524 205.13C181.644 205.19 181.844 205.26 182.124 205.34C182.424 205.4 182.634 205.45 182.754 205.49C182.874 205.51 183.104 205.56 183.444 205.64C183.804 205.72 184.034 205.77 184.134 205.79C184.874 205.95 185.424 206.08 185.784 206.18C186.164 206.28 186.674 206.47 187.314 206.75C187.974 207.01 188.474 207.29 188.814 207.59C189.154 207.87 189.454 208.27 189.714 208.79C189.994 209.29 190.134 209.86 190.134 210.5C190.134 212 189.544 213.21 188.364 214.13C187.204 215.03 185.654 215.48 183.714 215.48C181.614 215.48 179.994 215.02 178.854 214.1C177.734 213.18 177.134 211.85 177.054 210.11H179.574C179.714 212.29 181.114 213.38 183.774 213.38C184.914 213.38 185.824 213.15 186.504 212.69C187.204 212.21 187.554 211.58 187.554 210.8C187.554 210.28 187.374 209.85 187.014 209.51C186.654 209.17 186.254 208.93 185.814 208.79C185.374 208.63 184.744 208.45 183.924 208.25C183.804 208.23 183.714 208.21 183.654 208.19C183.474 208.15 183.084 208.07 182.484 207.95C181.904 207.81 181.484 207.7 181.224 207.62C180.964 207.54 180.584 207.42 180.084 207.26C179.604 207.08 179.244 206.9 179.004 206.72C178.764 206.52 178.494 206.28 178.194 206C177.914 205.7 177.714 205.36 177.594 204.98C177.474 204.58 177.414 204.13 177.414 203.63C177.414 202.23 177.944 201.12 179.004 200.3C180.084 199.48 181.524 199.07 183.324 199.07C185.144 199.07 186.624 199.5 187.764 200.36C188.924 201.22 189.504 202.44 189.504 204.02Z" fill="white"/>
</svg>
