<svg width="280" height="280" viewBox="0 0 280 280" fill="none" xmlns="http://www.w3.org/2000/svg">
<rect width="280" height="280" fill="#056EC9"/>
<rect x="100" y="56" width="80" height="80" fill="#056EC9"/>
<path d="M134.413 99.1892C135.957 98.2263 137.355 97.0521 138.567 95.7059L142.935 98.2238L146.912 91.3472L142.553 88.8347C143.107 87.1456 143.433 85.354 143.494 83.4968L148.453 82.6239L147.071 74.8043L142.113 75.6771C141.428 73.9818 140.509 72.4054 139.394 70.9888L142.635 67.1334L136.542 62.0298L133.303 65.8819C131.722 65.0358 130.009 64.4033 128.204 64.0238V59H120.249V64.0238C118.444 64.4033 116.731 65.0358 115.149 65.8819L111.911 62.0298L105.818 67.1336L109.058 70.989C107.944 72.4056 107.024 73.9822 106.339 75.6773L101.381 74.8044L100 82.6241L104.958 83.4969C105.02 85.3543 105.346 87.1456 105.9 88.8353L101.54 91.3475L105.518 98.224L109.886 95.7068C111.097 97.0524 112.495 98.2269 114.039 99.1897L112.315 103.918L119.79 106.633L121.511 101.911C122.399 102.037 123.305 102.103 124.226 102.103C125.148 102.103 126.054 102.037 126.942 101.911L128.663 106.634L136.138 103.918L134.413 99.1892ZM124.226 92.9971C118.625 92.9971 114.068 88.4484 114.068 82.857C114.068 77.2659 118.625 72.7169 124.226 72.7169C129.827 72.7169 134.384 77.2659 134.384 82.857C134.384 88.4484 129.827 92.9971 124.226 92.9971Z" fill="white"/>
<path d="M169.797 108.743L166.368 109.85C165.714 108.715 164.906 107.688 163.975 106.794L165.892 103.741L161.067 100.724L159.152 103.774C157.947 103.33 156.67 103.05 155.352 102.96L154.855 99.3977L149.216 100.182L149.713 103.744C148.471 104.191 147.318 104.809 146.281 105.565L143.604 103.153L139.789 107.372L142.468 109.787C141.818 110.901 141.323 112.109 141.005 113.379L137.403 113.249L137.197 118.929L140.799 119.059C141.026 120.37 141.435 121.607 141.995 122.751L139.153 124.962L142.653 129.445L145.501 127.23C146.493 128.064 147.601 128.759 148.79 129.29L148.035 132.813L153.604 134L154.358 130.483C154.999 130.484 155.648 130.441 156.301 130.35C156.954 130.26 157.591 130.123 158.207 129.947L159.896 133.125L164.926 130.462L163.236 127.28C164.235 126.445 165.109 125.474 165.836 124.401L169.181 125.755L171.32 120.487L167.981 119.136C168.207 117.884 168.26 116.581 168.121 115.258L171.55 114.15L169.797 108.743ZM155.401 123.894C151.429 124.446 147.748 121.671 147.195 117.707C146.641 113.742 149.422 110.067 153.393 109.515C157.365 108.962 161.045 111.738 161.599 115.703C162.152 119.667 159.372 123.341 155.401 123.894Z" fill="white"/>
<path d="M179.866 85.4543L180 80.969L177.157 80.8847C176.978 79.8962 176.66 78.9173 176.192 77.9761L178.425 76.2151L175.639 72.6948L173.407 74.4551C172.61 73.7946 171.73 73.2561 170.795 72.8496L171.372 70.0649L166.971 69.1551L166.393 71.938C165.379 71.9394 164.357 72.0831 163.357 72.3772L162.008 69.8773L158.051 72.0052L159.399 74.5054C158.603 75.1767 157.92 75.9503 157.36 76.7939L154.715 75.7431L153.053 79.9122L155.7 80.9646C155.526 81.9677 155.492 82.9967 155.606 84.024L152.905 84.916L154.315 89.1765L157.017 88.2849C157.546 89.1929 158.189 89.9961 158.919 90.689L157.425 93.1053L161.249 95.4629L162.747 93.0423C163.711 93.3876 164.722 93.5979 165.748 93.664L166.159 96.4782L170.607 95.8297L170.198 93.019C170.672 92.8447 171.141 92.6349 171.599 92.3883C172.058 92.1421 172.492 91.8662 172.899 91.567L175.024 93.4557L178.013 90.1051L175.887 88.2142C176.397 87.3219 176.776 86.3632 177.019 85.3698L179.866 85.4543ZM169.156 87.8577C166.368 89.3559 162.879 88.3115 161.379 85.5297C159.878 82.7475 160.924 79.2642 163.712 77.7667C166.498 76.2681 169.987 77.3132 171.488 80.0954C172.988 82.8777 171.942 86.3592 169.156 87.8577Z" fill="white"/>
<path d="M55.9889 162.64H59.8889L66.7589 180.73L73.3889 162.64H77.3189V184H74.6489V166.18L67.9589 184H65.4989L58.6889 166.18V184H55.9889V162.64ZM95.3517 181.96V183.94C94.8317 184.14 94.2517 184.24 93.6117 184.24C92.1517 184.24 91.4017 183.48 91.3617 181.96C89.9017 183.6 88.0317 184.42 85.7517 184.42C84.2317 184.42 83.0217 184.03 82.1217 183.25C81.2417 182.47 80.8017 181.4 80.8017 180.04C80.8017 177.28 82.6317 175.67 86.2917 175.21C86.5317 175.17 86.8817 175.13 87.3417 175.09C89.0817 174.89 90.1517 174.66 90.5517 174.4C91.0117 174.08 91.2417 173.53 91.2417 172.75C91.2417 171.05 90.0717 170.2 87.7317 170.2C86.5317 170.2 85.6217 170.45 85.0017 170.95C84.3817 171.43 84.0117 172.23 83.8917 173.35H81.4017C81.4417 171.69 82.0317 170.4 83.1717 169.48C84.3117 168.56 85.8817 168.1 87.8817 168.1C90.0617 168.1 91.6817 168.6 92.7417 169.6C93.0817 169.92 93.3317 170.34 93.4917 170.86C93.6517 171.38 93.7417 171.81 93.7617 172.15C93.7817 172.47 93.7917 172.96 93.7917 173.62C93.7917 174.38 93.7717 175.53 93.7317 177.07C93.6917 178.61 93.6717 179.76 93.6717 180.52C93.6717 181.08 93.7417 181.48 93.8817 181.72C94.0417 181.94 94.3217 182.05 94.7217 182.05C94.8817 182.05 95.0917 182.02 95.3517 181.96ZM91.2417 175.96C91.0617 176.1 90.8717 176.22 90.6717 176.32C90.4717 176.42 90.2117 176.5 89.8917 176.56C89.5917 176.62 89.3817 176.67 89.2617 176.71C89.1617 176.73 88.9017 176.77 88.4817 176.83C88.0617 176.87 87.8417 176.89 87.8217 176.89C87.2017 176.97 86.7917 177.03 86.5917 177.07C86.4117 177.09 86.0517 177.17 85.5117 177.31C84.9917 177.45 84.6217 177.61 84.4017 177.79C84.1817 177.97 83.9617 178.24 83.7417 178.6C83.5417 178.94 83.4417 179.35 83.4417 179.83C83.4417 180.63 83.7117 181.26 84.2517 181.72C84.8117 182.18 85.5717 182.41 86.5317 182.41C87.7517 182.41 88.8417 182.05 89.8017 181.33C90.7617 180.61 91.2417 179.76 91.2417 178.78V175.96ZM100.455 162.64V165.76H97.875V162.64H100.455ZM100.455 168.52V184H97.875V168.52H100.455ZM106.805 168.52V170.92C108.085 169.04 109.845 168.1 112.085 168.1C113.905 168.1 115.215 168.58 116.015 169.54C116.835 170.48 117.245 171.87 117.245 173.71V184H114.695V174.88C114.695 174.12 114.665 173.53 114.605 173.11C114.565 172.67 114.445 172.21 114.245 171.73C114.045 171.23 113.705 170.87 113.225 170.65C112.745 170.43 112.125 170.32 111.365 170.32C108.425 170.32 106.955 172.18 106.955 175.9V184H104.405V168.52H106.805ZM127.705 168.52V170.62H124.615V179.65C124.615 180.15 124.615 180.48 124.615 180.64C124.635 180.8 124.695 181.02 124.795 181.3C124.895 181.56 125.065 181.73 125.305 181.81C125.545 181.89 125.885 181.93 126.325 181.93C126.705 181.93 127.165 181.9 127.705 181.84V184.03C126.985 184.11 126.335 184.15 125.755 184.15C125.035 184.15 124.435 184.07 123.955 183.91C123.475 183.75 123.105 183.57 122.845 183.37C122.605 183.17 122.425 182.82 122.305 182.32C122.185 181.8 122.115 181.37 122.095 181.03C122.075 180.67 122.065 180.08 122.065 179.26C122.065 179.2 122.065 179.16 122.065 179.14C122.065 179.1 122.065 179.05 122.065 178.99C122.065 178.93 122.065 178.88 122.065 178.84V170.62H119.455V168.52H122.065V163.93H124.615V168.52H127.705ZM143.768 179.11C142.988 182.71 140.738 184.51 137.018 184.51C134.738 184.51 132.948 183.8 131.648 182.38C130.368 180.96 129.728 178.99 129.728 176.47C129.728 173.97 130.388 171.95 131.708 170.41C133.048 168.85 134.788 168.07 136.928 168.07C139.308 168.07 141.068 168.88 142.208 170.5C143.368 172.1 143.948 174.13 143.948 176.59V176.95H132.308L132.278 177.13C132.278 178.77 132.708 180.06 133.568 181C134.428 181.94 135.608 182.41 137.108 182.41C138.228 182.41 139.108 182.15 139.748 181.63C140.408 181.11 140.918 180.27 141.278 179.11H143.768ZM141.308 174.88C141.188 173.4 140.738 172.25 139.958 171.43C139.178 170.59 138.148 170.17 136.868 170.17C135.628 170.17 134.598 170.59 133.778 171.43C132.958 172.27 132.468 173.42 132.308 174.88H141.308ZM149.051 168.52V170.92C150.331 169.04 152.091 168.1 154.331 168.1C156.151 168.1 157.461 168.58 158.261 169.54C159.081 170.48 159.491 171.87 159.491 173.71V184H156.941V174.88C156.941 174.12 156.911 173.53 156.851 173.11C156.811 172.67 156.691 172.21 156.491 171.73C156.291 171.23 155.951 170.87 155.471 170.65C154.991 170.43 154.371 170.32 153.611 170.32C150.671 170.32 149.201 172.18 149.201 175.9V184H146.651V168.52H149.051ZM177.031 181.96V183.94C176.511 184.14 175.931 184.24 175.291 184.24C173.831 184.24 173.081 183.48 173.041 181.96C171.581 183.6 169.711 184.42 167.431 184.42C165.911 184.42 164.701 184.03 163.801 183.25C162.921 182.47 162.481 181.4 162.481 180.04C162.481 177.28 164.311 175.67 167.971 175.21C168.211 175.17 168.561 175.13 169.021 175.09C170.761 174.89 171.831 174.66 172.231 174.4C172.691 174.08 172.921 173.53 172.921 172.75C172.921 171.05 171.751 170.2 169.411 170.2C168.211 170.2 167.301 170.45 166.681 170.95C166.061 171.43 165.691 172.23 165.571 173.35H163.081C163.121 171.69 163.711 170.4 164.851 169.48C165.991 168.56 167.561 168.1 169.561 168.1C171.741 168.1 173.361 168.6 174.421 169.6C174.761 169.92 175.011 170.34 175.171 170.86C175.331 171.38 175.421 171.81 175.441 172.15C175.461 172.47 175.471 172.96 175.471 173.62C175.471 174.38 175.451 175.53 175.411 177.07C175.371 178.61 175.351 179.76 175.351 180.52C175.351 181.08 175.421 181.48 175.561 181.72C175.721 181.94 176.001 182.05 176.401 182.05C176.561 182.05 176.771 182.02 177.031 181.96ZM172.921 175.96C172.741 176.1 172.551 176.22 172.351 176.32C172.151 176.42 171.891 176.5 171.571 176.56C171.271 176.62 171.061 176.67 170.941 176.71C170.841 176.73 170.581 176.77 170.161 176.83C169.741 176.87 169.521 176.89 169.501 176.89C168.881 176.97 168.471 177.03 168.271 177.07C168.091 177.09 167.731 177.17 167.191 177.31C166.671 177.45 166.301 177.61 166.081 177.79C165.861 177.97 165.641 178.24 165.421 178.6C165.221 178.94 165.121 179.35 165.121 179.83C165.121 180.63 165.391 181.26 165.931 181.72C166.491 182.18 167.251 182.41 168.211 182.41C169.431 182.41 170.521 182.05 171.481 181.33C172.441 180.61 172.921 179.76 172.921 178.78V175.96ZM181.835 168.52V170.92C183.115 169.04 184.875 168.1 187.115 168.1C188.935 168.1 190.245 168.58 191.045 169.54C191.865 170.48 192.275 171.87 192.275 173.71V184H189.725V174.88C189.725 174.12 189.695 173.53 189.635 173.11C189.595 172.67 189.475 172.21 189.275 171.73C189.075 171.23 188.735 170.87 188.255 170.65C187.775 170.43 187.155 170.32 186.395 170.32C183.455 170.32 181.985 172.18 181.985 175.9V184H179.435V168.52H181.835ZM209.425 178.36C209.205 180.22 208.495 181.7 207.295 182.8C206.115 183.9 204.575 184.45 202.675 184.45C200.335 184.45 198.525 183.73 197.245 182.29C195.965 180.83 195.325 178.89 195.325 176.47C195.325 173.89 195.995 171.85 197.335 170.35C198.675 168.83 200.485 168.07 202.765 168.07C204.665 168.07 206.185 168.55 207.325 169.51C208.465 170.45 209.135 171.8 209.335 173.56H206.695C206.235 171.32 204.935 170.2 202.795 170.2C201.315 170.2 200.145 170.75 199.285 171.85C198.425 172.93 197.995 174.4 197.995 176.26C197.995 178.14 198.405 179.62 199.225 180.7C200.045 181.78 201.175 182.32 202.615 182.32C203.775 182.32 204.715 181.98 205.435 181.3C206.175 180.62 206.645 179.64 206.845 178.36H209.425ZM225.448 179.11C224.668 182.71 222.418 184.51 218.698 184.51C216.418 184.51 214.628 183.8 213.328 182.38C212.048 180.96 211.408 178.99 211.408 176.47C211.408 173.97 212.068 171.95 213.388 170.41C214.728 168.85 216.468 168.07 218.608 168.07C220.988 168.07 222.748 168.88 223.888 170.5C225.048 172.1 225.628 174.13 225.628 176.59V176.95H213.988L213.958 177.13C213.958 178.77 214.388 180.06 215.248 181C216.108 181.94 217.288 182.41 218.788 182.41C219.908 182.41 220.788 182.15 221.428 181.63C222.088 181.11 222.598 180.27 222.958 179.11H225.448ZM222.988 174.88C222.868 173.4 222.418 172.25 221.638 171.43C220.858 170.59 219.828 170.17 218.548 170.17C217.308 170.17 216.278 170.59 215.458 171.43C214.638 172.27 214.148 173.42 213.988 174.88H222.988ZM74.214 212.96V214.94C73.694 215.14 73.114 215.24 72.474 215.24C71.014 215.24 70.264 214.48 70.224 212.96C68.764 214.6 66.894 215.42 64.614 215.42C63.094 215.42 61.884 215.03 60.984 214.25C60.104 213.47 59.664 212.4 59.664 211.04C59.664 208.28 61.494 206.67 65.154 206.21C65.394 206.17 65.744 206.13 66.204 206.09C67.944 205.89 69.014 205.66 69.414 205.4C69.874 205.08 70.104 204.53 70.104 203.75C70.104 202.05 68.934 201.2 66.594 201.2C65.394 201.2 64.484 201.45 63.864 201.95C63.244 202.43 62.874 203.23 62.754 204.35H60.264C60.304 202.69 60.894 201.4 62.034 200.48C63.174 199.56 64.744 199.1 66.744 199.1C68.924 199.1 70.544 199.6 71.604 200.6C71.944 200.92 72.194 201.34 72.354 201.86C72.514 202.38 72.604 202.81 72.624 203.15C72.644 203.47 72.654 203.96 72.654 204.62C72.654 205.38 72.634 206.53 72.594 208.07C72.554 209.61 72.534 210.76 72.534 211.52C72.534 212.08 72.604 212.48 72.744 212.72C72.904 212.94 73.184 213.05 73.584 213.05C73.744 213.05 73.954 213.02 74.214 212.96ZM70.104 206.96C69.924 207.1 69.734 207.22 69.534 207.32C69.334 207.42 69.074 207.5 68.754 207.56C68.454 207.62 68.244 207.67 68.124 207.71C68.024 207.73 67.764 207.77 67.344 207.83C66.924 207.87 66.704 207.89 66.684 207.89C66.064 207.97 65.654 208.03 65.454 208.07C65.274 208.09 64.914 208.17 64.374 208.31C63.854 208.45 63.484 208.61 63.264 208.79C63.044 208.97 62.824 209.24 62.604 209.6C62.404 209.94 62.304 210.35 62.304 210.83C62.304 211.63 62.574 212.26 63.114 212.72C63.674 213.18 64.434 213.41 65.394 213.41C66.614 213.41 67.704 213.05 68.664 212.33C69.624 211.61 70.104 210.76 70.104 209.78V206.96ZM79.0173 199.52V201.92C80.2973 200.04 82.0573 199.1 84.2973 199.1C86.1173 199.1 87.4273 199.58 88.2273 200.54C89.0473 201.48 89.4573 202.87 89.4573 204.71V215H86.9073V205.88C86.9073 205.12 86.8773 204.53 86.8173 204.11C86.7773 203.67 86.6573 203.21 86.4573 202.73C86.2573 202.23 85.9173 201.87 85.4373 201.65C84.9573 201.43 84.3373 201.32 83.5773 201.32C80.6373 201.32 79.1673 203.18 79.1673 206.9V215H76.6173V199.52H79.0173ZM107.237 193.64V215H104.837V212.72C103.857 214.52 102.157 215.42 99.7372 215.42C97.5372 215.42 95.7872 214.69 94.4872 213.23C93.2072 211.75 92.5672 209.75 92.5672 207.23C92.5672 204.89 93.1672 202.95 94.3672 201.41C95.5872 199.85 97.3372 199.07 99.6172 199.07C101.837 199.07 103.527 199.91 104.687 201.59V193.64H107.237ZM99.9472 201.26C98.4872 201.26 97.3272 201.79 96.4672 202.85C95.6272 203.91 95.2072 205.35 95.2072 207.17C95.2072 209.05 95.6372 210.55 96.4972 211.67C97.3772 212.77 98.5472 213.32 100.007 213.32C101.487 213.32 102.647 212.79 103.487 211.73C104.327 210.65 104.747 209.16 104.747 207.26C104.747 205.56 104.347 204.14 103.547 203C102.767 201.84 101.567 201.26 99.9472 201.26ZM130.91 204.02H128.36C128.2 202.14 126.94 201.2 124.58 201.2C123.6 201.2 122.83 201.39 122.27 201.77C121.71 202.15 121.43 202.66 121.43 203.3C121.43 203.48 121.45 203.66 121.49 203.84C121.53 204 121.6 204.15 121.7 204.29C121.82 204.41 121.92 204.52 122 204.62C122.1 204.72 122.25 204.82 122.45 204.92C122.67 205 122.83 205.07 122.93 205.13C123.05 205.19 123.25 205.26 123.53 205.34C123.83 205.4 124.04 205.45 124.16 205.49C124.28 205.51 124.51 205.56 124.85 205.64C125.21 205.72 125.44 205.77 125.54 205.79C126.28 205.95 126.83 206.08 127.19 206.18C127.57 206.28 128.08 206.47 128.72 206.75C129.38 207.01 129.88 207.29 130.22 207.59C130.56 207.87 130.86 208.27 131.12 208.79C131.4 209.29 131.54 209.86 131.54 210.5C131.54 212 130.95 213.21 129.77 214.13C128.61 215.03 127.06 215.48 125.12 215.48C123.02 215.48 121.4 215.02 120.26 214.1C119.14 213.18 118.54 211.85 118.46 210.11H120.98C121.12 212.29 122.52 213.38 125.18 213.38C126.32 213.38 127.23 213.15 127.91 212.69C128.61 212.21 128.96 211.58 128.96 210.8C128.96 210.28 128.78 209.85 128.42 209.51C128.06 209.17 127.66 208.93 127.22 208.79C126.78 208.63 126.15 208.45 125.33 208.25C125.21 208.23 125.12 208.21 125.06 208.19C124.88 208.15 124.49 208.07 123.89 207.95C123.31 207.81 122.89 207.7 122.63 207.62C122.37 207.54 121.99 207.42 121.49 207.26C121.01 207.08 120.65 206.9 120.41 206.72C120.17 206.52 119.9 206.28 119.6 206C119.32 205.7 119.12 205.36 119 204.98C118.88 204.58 118.82 204.13 118.82 203.63C118.82 202.23 119.35 201.12 120.41 200.3C121.49 199.48 122.93 199.07 124.73 199.07C126.55 199.07 128.03 199.5 129.17 200.36C130.33 201.22 130.91 202.44 130.91 204.02ZM147.26 199.52V215H144.89V212.57C143.57 214.47 141.79 215.42 139.55 215.42C137.91 215.42 136.64 214.97 135.74 214.07C134.84 213.17 134.39 211.87 134.39 210.17V199.52H136.94V209.48C136.94 210.7 137.17 211.63 137.63 212.27C138.11 212.89 138.96 213.2 140.18 213.2C143.2 213.2 144.71 211.34 144.71 207.62V199.52H147.26ZM153.49 199.52V201.71C154.61 199.93 156.35 199.04 158.71 199.04C160.87 199.04 162.58 199.77 163.84 201.23C165.12 202.69 165.76 204.67 165.76 207.17C165.76 209.67 165.13 211.67 163.87 213.17C162.63 214.65 160.95 215.39 158.83 215.39C156.61 215.39 154.88 214.54 153.64 212.84V220.97H151.09V199.52H153.49ZM158.32 201.17C156.84 201.17 155.67 201.71 154.81 202.79C153.97 203.85 153.55 205.32 153.55 207.2C153.55 209.08 153.98 210.56 154.84 211.64C155.72 212.7 156.91 213.23 158.41 213.23C159.87 213.23 161.02 212.69 161.86 211.61C162.7 210.53 163.12 209.06 163.12 207.2C163.12 205.32 162.69 203.85 161.83 202.79C160.99 201.71 159.82 201.17 158.32 201.17ZM171.273 199.52V201.71C172.393 199.93 174.133 199.04 176.493 199.04C178.653 199.04 180.363 199.77 181.623 201.23C182.903 202.69 183.543 204.67 183.543 207.17C183.543 209.67 182.913 211.67 181.653 213.17C180.413 214.65 178.733 215.39 176.613 215.39C174.393 215.39 172.663 214.54 171.423 212.84V220.97H168.873V199.52H171.273ZM176.103 201.17C174.623 201.17 173.453 201.71 172.593 202.79C171.753 203.85 171.333 205.32 171.333 207.2C171.333 209.08 171.763 210.56 172.623 211.64C173.503 212.7 174.693 213.23 176.193 213.23C177.653 213.23 178.803 212.69 179.643 211.61C180.483 210.53 180.903 209.06 180.903 207.2C180.903 205.32 180.473 203.85 179.613 202.79C178.773 201.71 177.603 201.17 176.103 201.17ZM187.886 201.29C189.246 199.81 191.096 199.07 193.436 199.07C195.776 199.07 197.596 199.78 198.896 201.2C200.196 202.62 200.846 204.61 200.846 207.17C200.846 209.79 200.196 211.83 198.896 213.29C197.596 214.75 195.766 215.48 193.406 215.48C191.046 215.48 189.196 214.76 187.856 213.32C186.516 211.88 185.846 209.88 185.846 207.32C185.846 204.78 186.526 202.77 187.886 201.29ZM196.916 202.85C196.056 201.75 194.876 201.2 193.376 201.2C191.876 201.2 190.686 201.75 189.806 202.85C188.926 203.95 188.486 205.42 188.486 207.26C188.486 209.16 188.916 210.65 189.776 211.73C190.656 212.79 191.876 213.32 193.436 213.32C194.936 213.32 196.106 212.78 196.946 211.7C197.806 210.62 198.236 209.13 198.236 207.23C198.236 205.39 197.796 203.93 196.916 202.85ZM211.953 199.16V201.8C211.773 201.78 211.553 201.77 211.293 201.77C210.473 201.77 209.763 201.9 209.163 202.16C208.563 202.4 208.083 202.72 207.723 203.12C207.383 203.52 207.103 204.02 206.883 204.62C206.663 205.22 206.513 205.82 206.433 206.42C206.373 207.02 206.343 207.7 206.343 208.46V215H203.793V199.52H206.223V202.85C207.243 200.39 209.153 199.16 211.953 199.16ZM220.503 199.52V201.62H217.413V210.65C217.413 211.15 217.413 211.48 217.413 211.64C217.433 211.8 217.493 212.02 217.593 212.3C217.693 212.56 217.863 212.73 218.103 212.81C218.343 212.89 218.683 212.93 219.123 212.93C219.503 212.93 219.963 212.9 220.503 212.84V215.03C219.783 215.11 219.133 215.15 218.553 215.15C217.833 215.15 217.233 215.07 216.753 214.91C216.273 214.75 215.903 214.57 215.643 214.37C215.403 214.17 215.223 213.82 215.103 213.32C214.983 212.8 214.913 212.37 214.893 212.03C214.873 211.67 214.863 211.08 214.863 210.26C214.863 210.2 214.863 210.16 214.863 210.14C214.863 210.1 214.863 210.05 214.863 209.99C214.863 209.93 214.863 209.88 214.863 209.84V201.62H212.253V199.52H214.863V194.93H217.413V199.52H220.503Z" fill="white"/>
</svg>
