<svg width="280" height="280" viewBox="0 0 280 280" fill="none" xmlns="http://www.w3.org/2000/svg">
<rect width="280" height="280" fill="#056EC9"/>
<rect x="100" y="56" width="80" height="80" fill="#056EC9"/>
<path d="M100 98H114V101.958H109V109.799H111.355C113.218 109.799 115.694 108.685 116.977 107.327C118.951 105.239 120.908 103.938 124 103.938C127.092 103.938 129.049 105.239 131.023 107.327C132.306 108.685 134.782 109.799 136.645 109.799H139V101.958H134V98H148V101.958H143V109.799H144.667C146.508 109.799 148 111.298 148 113.148V114.462C148 116.312 146.508 117.811 144.667 117.811H140.317L144.824 128.477C146.335 132.054 143.681 136 139.763 136H133.942V131.929H139.763C140.742 131.929 141.406 130.942 141.028 130.048L135.881 117.867C134.15 118.109 132.137 119.104 131.023 120.283C129.049 122.371 127.092 123.673 124 123.673C120.908 123.673 118.951 122.371 116.977 120.283C115.997 119.245 114.32 118.35 112.752 117.986L107.655 130.048C107.277 130.942 107.941 131.929 108.92 131.929H114.741V136H108.92C105.002 136 102.348 132.054 103.859 128.477L108.366 117.811H103.333C101.492 117.811 100 116.312 100 114.462V113.148C100 111.298 101.492 109.799 103.333 109.799H105V101.958H100V98Z" fill="white"/>
<path fill-rule="evenodd" clip-rule="evenodd" d="M146 83.9762C146 91.9412 150.822 99.0869 158.285 102.181L162.452 103.908C162.746 104.03 163.077 104.031 163.372 103.91L167.656 102.149C175.155 99.0682 180 91.9133 180 83.9206V61.617C180 61.0948 179.648 60.6357 179.137 60.4927L163.236 56.0446C163.023 55.9849 162.796 55.9852 162.583 56.0454L146.861 60.4831C146.351 60.6267 146 61.0852 146 61.6067V83.9762ZM160.768 88.3033L173.536 75.5355L170 72L160.768 81.2322L156.536 77L153 80.5355L160.768 88.3033Z" fill="white"/>
<path d="M79.7582 162.64V184H76.9382V162.64H79.7582ZM86.5319 168.52V170.92C87.8119 169.04 89.5719 168.1 91.8119 168.1C93.6319 168.1 94.9419 168.58 95.7419 169.54C96.5619 170.48 96.9719 171.87 96.9719 173.71V184H94.4219V174.88C94.4219 174.12 94.3919 173.53 94.3319 173.11C94.2919 172.67 94.1719 172.21 93.9719 171.73C93.7719 171.23 93.4319 170.87 92.9519 170.65C92.4719 170.43 91.8519 170.32 91.0919 170.32C88.1519 170.32 86.6819 172.18 86.6819 175.9V184H84.1319V168.52H86.5319ZM112.292 173.02H109.742C109.582 171.14 108.322 170.2 105.962 170.2C104.982 170.2 104.212 170.39 103.652 170.77C103.092 171.15 102.812 171.66 102.812 172.3C102.812 172.48 102.832 172.66 102.872 172.84C102.912 173 102.982 173.15 103.082 173.29C103.202 173.41 103.302 173.52 103.382 173.62C103.482 173.72 103.632 173.82 103.832 173.92C104.052 174 104.212 174.07 104.312 174.13C104.432 174.19 104.632 174.26 104.912 174.34C105.212 174.4 105.422 174.45 105.542 174.49C105.662 174.51 105.892 174.56 106.232 174.64C106.592 174.72 106.822 174.77 106.922 174.79C107.662 174.95 108.212 175.08 108.572 175.18C108.952 175.28 109.462 175.47 110.102 175.75C110.762 176.01 111.262 176.29 111.602 176.59C111.942 176.87 112.242 177.27 112.502 177.79C112.782 178.29 112.922 178.86 112.922 179.5C112.922 181 112.332 182.21 111.152 183.13C109.992 184.03 108.442 184.48 106.502 184.48C104.402 184.48 102.782 184.02 101.642 183.1C100.522 182.18 99.9218 180.85 99.8418 179.11H102.362C102.502 181.29 103.902 182.38 106.562 182.38C107.702 182.38 108.612 182.15 109.292 181.69C109.992 181.21 110.342 180.58 110.342 179.8C110.342 179.28 110.162 178.85 109.802 178.51C109.442 178.17 109.042 177.93 108.602 177.79C108.162 177.63 107.532 177.45 106.712 177.25C106.592 177.23 106.502 177.21 106.442 177.19C106.262 177.15 105.872 177.07 105.272 176.95C104.692 176.81 104.272 176.7 104.012 176.62C103.752 176.54 103.372 176.42 102.872 176.26C102.392 176.08 102.032 175.9 101.792 175.72C101.552 175.52 101.282 175.28 100.982 175C100.702 174.7 100.502 174.36 100.382 173.98C100.262 173.58 100.202 173.13 100.202 172.63C100.202 171.23 100.732 170.12 101.792 169.3C102.872 168.48 104.312 168.07 106.112 168.07C107.932 168.07 109.412 168.5 110.552 169.36C111.712 170.22 112.292 171.44 112.292 173.02ZM128.642 168.52V184H126.272V181.57C124.952 183.47 123.172 184.42 120.932 184.42C119.292 184.42 118.022 183.97 117.122 183.07C116.222 182.17 115.772 180.87 115.772 179.17V168.52H118.322V178.48C118.322 179.7 118.552 180.63 119.012 181.27C119.492 181.89 120.342 182.2 121.562 182.2C124.582 182.2 126.092 180.34 126.092 176.62V168.52H128.642ZM140.542 168.16V170.8C140.362 170.78 140.142 170.77 139.882 170.77C139.062 170.77 138.352 170.9 137.752 171.16C137.152 171.4 136.672 171.72 136.312 172.12C135.972 172.52 135.692 173.02 135.472 173.62C135.252 174.22 135.102 174.82 135.022 175.42C134.962 176.02 134.932 176.7 134.932 177.46V184H132.382V168.52H134.812V171.85C135.832 169.39 137.742 168.16 140.542 168.16ZM156.172 181.96V183.94C155.652 184.14 155.072 184.24 154.432 184.24C152.972 184.24 152.222 183.48 152.182 181.96C150.722 183.6 148.852 184.42 146.572 184.42C145.052 184.42 143.842 184.03 142.942 183.25C142.062 182.47 141.622 181.4 141.622 180.04C141.622 177.28 143.452 175.67 147.112 175.21C147.352 175.17 147.702 175.13 148.162 175.09C149.902 174.89 150.972 174.66 151.372 174.4C151.832 174.08 152.062 173.53 152.062 172.75C152.062 171.05 150.892 170.2 148.552 170.2C147.352 170.2 146.442 170.45 145.822 170.95C145.202 171.43 144.832 172.23 144.712 173.35H142.222C142.262 171.69 142.852 170.4 143.992 169.48C145.132 168.56 146.702 168.1 148.702 168.1C150.882 168.1 152.502 168.6 153.562 169.6C153.902 169.92 154.152 170.34 154.312 170.86C154.472 171.38 154.562 171.81 154.582 172.15C154.602 172.47 154.612 172.96 154.612 173.62C154.612 174.38 154.592 175.53 154.552 177.07C154.512 178.61 154.492 179.76 154.492 180.52C154.492 181.08 154.562 181.48 154.702 181.72C154.862 181.94 155.142 182.05 155.542 182.05C155.702 182.05 155.912 182.02 156.172 181.96ZM152.062 175.96C151.882 176.1 151.692 176.22 151.492 176.32C151.292 176.42 151.032 176.5 150.712 176.56C150.412 176.62 150.202 176.67 150.082 176.71C149.982 176.73 149.722 176.77 149.302 176.83C148.882 176.87 148.662 176.89 148.642 176.89C148.022 176.97 147.612 177.03 147.412 177.07C147.232 177.09 146.872 177.17 146.332 177.31C145.812 177.45 145.442 177.61 145.222 177.79C145.002 177.97 144.782 178.24 144.562 178.6C144.362 178.94 144.262 179.35 144.262 179.83C144.262 180.63 144.532 181.26 145.072 181.72C145.632 182.18 146.392 182.41 147.352 182.41C148.572 182.41 149.662 182.05 150.622 181.33C151.582 180.61 152.062 179.76 152.062 178.78V175.96ZM160.975 168.52V170.92C162.255 169.04 164.015 168.1 166.255 168.1C168.075 168.1 169.385 168.58 170.185 169.54C171.005 170.48 171.415 171.87 171.415 173.71V184H168.865V174.88C168.865 174.12 168.835 173.53 168.775 173.11C168.735 172.67 168.615 172.21 168.415 171.73C168.215 171.23 167.875 170.87 167.395 170.65C166.915 170.43 166.295 170.32 165.535 170.32C162.595 170.32 161.125 172.18 161.125 175.9V184H158.575V168.52H160.975ZM188.565 178.36C188.345 180.22 187.635 181.7 186.435 182.8C185.255 183.9 183.715 184.45 181.815 184.45C179.475 184.45 177.665 183.73 176.385 182.29C175.105 180.83 174.465 178.89 174.465 176.47C174.465 173.89 175.135 171.85 176.475 170.35C177.815 168.83 179.625 168.07 181.905 168.07C183.805 168.07 185.325 168.55 186.465 169.51C187.605 170.45 188.275 171.8 188.475 173.56H185.835C185.375 171.32 184.075 170.2 181.935 170.2C180.455 170.2 179.285 170.75 178.425 171.85C177.565 172.93 177.135 174.4 177.135 176.26C177.135 178.14 177.545 179.62 178.365 180.7C179.185 181.78 180.315 182.32 181.755 182.32C182.915 182.32 183.855 181.98 184.575 181.3C185.315 180.62 185.785 179.64 185.985 178.36H188.565ZM204.588 179.11C203.808 182.71 201.558 184.51 197.838 184.51C195.558 184.51 193.768 183.8 192.468 182.38C191.188 180.96 190.548 178.99 190.548 176.47C190.548 173.97 191.208 171.95 192.528 170.41C193.868 168.85 195.608 168.07 197.748 168.07C200.128 168.07 201.888 168.88 203.028 170.5C204.188 172.1 204.768 174.13 204.768 176.59V176.95H193.128L193.098 177.13C193.098 178.77 193.528 180.06 194.388 181C195.248 181.94 196.428 182.41 197.928 182.41C199.048 182.41 199.928 182.15 200.568 181.63C201.228 181.11 201.738 180.27 202.098 179.11H204.588ZM202.128 174.88C202.008 173.4 201.558 172.25 200.778 171.43C199.998 170.59 198.968 170.17 197.688 170.17C196.448 170.17 195.418 170.59 194.598 171.43C193.778 172.27 193.288 173.42 193.128 174.88H202.128ZM80.1305 199.52V201.71C81.2505 199.93 82.9905 199.04 85.3505 199.04C87.5105 199.04 89.2205 199.77 90.4805 201.23C91.7605 202.69 92.4005 204.67 92.4005 207.17C92.4005 209.67 91.7705 211.67 90.5105 213.17C89.2705 214.65 87.5905 215.39 85.4705 215.39C83.2505 215.39 81.5205 214.54 80.2805 212.84V220.97H77.7305V199.52H80.1305ZM84.9605 201.17C83.4805 201.17 82.3105 201.71 81.4505 202.79C80.6105 203.85 80.1905 205.32 80.1905 207.2C80.1905 209.08 80.6205 210.56 81.4805 211.64C82.3605 212.7 83.5505 213.23 85.0505 213.23C86.5105 213.23 87.6605 212.69 88.5005 211.61C89.3405 210.53 89.7605 209.06 89.7605 207.2C89.7605 205.32 89.3305 203.85 88.4705 202.79C87.6305 201.71 86.4605 201.17 84.9605 201.17ZM103.584 199.16V201.8C103.404 201.78 103.184 201.77 102.924 201.77C102.104 201.77 101.394 201.9 100.794 202.16C100.194 202.4 99.7138 202.72 99.3538 203.12C99.0138 203.52 98.7338 204.02 98.5138 204.62C98.2938 205.22 98.1438 205.82 98.0638 206.42C98.0038 207.02 97.9738 207.7 97.9738 208.46V215H95.4238V199.52H97.8538V202.85C98.8738 200.39 100.784 199.16 103.584 199.16ZM106.207 201.29C107.567 199.81 109.417 199.07 111.757 199.07C114.097 199.07 115.917 199.78 117.217 201.2C118.517 202.62 119.167 204.61 119.167 207.17C119.167 209.79 118.517 211.83 117.217 213.29C115.917 214.75 114.087 215.48 111.727 215.48C109.367 215.48 107.517 214.76 106.177 213.32C104.837 211.88 104.167 209.88 104.167 207.32C104.167 204.78 104.847 202.77 106.207 201.29ZM115.237 202.85C114.377 201.75 113.197 201.2 111.697 201.2C110.197 201.2 109.007 201.75 108.127 202.85C107.247 203.95 106.807 205.42 106.807 207.26C106.807 209.16 107.237 210.65 108.097 211.73C108.977 212.79 110.197 213.32 111.757 213.32C113.257 213.32 114.427 212.78 115.267 211.7C116.127 210.62 116.557 209.13 116.557 207.23C116.557 205.39 116.117 203.93 115.237 202.85ZM135.613 199.52V213.32C135.613 214.66 135.543 215.69 135.403 216.41C135.263 217.15 135.003 217.84 134.623 218.48C133.483 220.36 131.443 221.3 128.503 221.3C126.763 221.3 125.293 220.94 124.093 220.22C122.893 219.52 122.193 218.36 121.993 216.74H124.603C124.903 218.46 126.233 219.32 128.593 219.32C130.173 219.32 131.313 218.92 132.013 218.12C132.733 217.32 133.113 216.03 133.153 214.25L133.183 212.36C132.203 214.24 130.563 215.18 128.263 215.18C126.183 215.18 124.523 214.47 123.283 213.05C122.063 211.63 121.453 209.72 121.453 207.32C121.453 205.06 122.063 203.13 123.283 201.53C124.503 199.91 126.203 199.1 128.383 199.1C129.463 199.1 130.423 199.33 131.263 199.79C132.123 200.25 132.793 200.91 133.273 201.77V199.52H135.613ZM128.503 201.32C127.123 201.32 126.033 201.86 125.233 202.94C124.453 204 124.063 205.47 124.063 207.35C124.063 209.05 124.473 210.42 125.293 211.46C126.113 212.48 127.203 212.99 128.563 212.99C129.983 212.99 131.093 212.45 131.893 211.37C132.713 210.29 133.123 208.81 133.123 206.93C133.123 205.17 132.713 203.8 131.893 202.82C131.093 201.82 129.963 201.32 128.503 201.32ZM147.5 199.16V201.8C147.32 201.78 147.1 201.77 146.84 201.77C146.02 201.77 145.31 201.9 144.71 202.16C144.11 202.4 143.63 202.72 143.27 203.12C142.93 203.52 142.65 204.02 142.43 204.62C142.21 205.22 142.06 205.82 141.98 206.42C141.92 207.02 141.89 207.7 141.89 208.46V215H139.34V199.52H141.77V202.85C142.79 200.39 144.7 199.16 147.5 199.16ZM163.13 212.96V214.94C162.61 215.14 162.03 215.24 161.39 215.24C159.93 215.24 159.18 214.48 159.14 212.96C157.68 214.6 155.81 215.42 153.53 215.42C152.01 215.42 150.8 215.03 149.9 214.25C149.02 213.47 148.58 212.4 148.58 211.04C148.58 208.28 150.41 206.67 154.07 206.21C154.31 206.17 154.66 206.13 155.12 206.09C156.86 205.89 157.93 205.66 158.33 205.4C158.79 205.08 159.02 204.53 159.02 203.75C159.02 202.05 157.85 201.2 155.51 201.2C154.31 201.2 153.4 201.45 152.78 201.95C152.16 202.43 151.79 203.23 151.67 204.35H149.18C149.22 202.69 149.81 201.4 150.95 200.48C152.09 199.56 153.66 199.1 155.66 199.1C157.84 199.1 159.46 199.6 160.52 200.6C160.86 200.92 161.11 201.34 161.27 201.86C161.43 202.38 161.52 202.81 161.54 203.15C161.56 203.47 161.57 203.96 161.57 204.62C161.57 205.38 161.55 206.53 161.51 208.07C161.47 209.61 161.45 210.76 161.45 211.52C161.45 212.08 161.52 212.48 161.66 212.72C161.82 212.94 162.1 213.05 162.5 213.05C162.66 213.05 162.87 213.02 163.13 212.96ZM159.02 206.96C158.84 207.1 158.65 207.22 158.45 207.32C158.25 207.42 157.99 207.5 157.67 207.56C157.37 207.62 157.16 207.67 157.04 207.71C156.94 207.73 156.68 207.77 156.26 207.83C155.84 207.87 155.62 207.89 155.6 207.89C154.98 207.97 154.57 208.03 154.37 208.07C154.19 208.09 153.83 208.17 153.29 208.31C152.77 208.45 152.4 208.61 152.18 208.79C151.96 208.97 151.74 209.24 151.52 209.6C151.32 209.94 151.22 210.35 151.22 210.83C151.22 211.63 151.49 212.26 152.03 212.72C152.59 213.18 153.35 213.41 154.31 213.41C155.53 213.41 156.62 213.05 157.58 212.33C158.54 211.61 159.02 210.76 159.02 209.78V206.96ZM167.933 199.52V201.77C168.613 200.85 169.343 200.18 170.123 199.76C170.903 199.34 171.853 199.13 172.973 199.13C175.093 199.13 176.523 200.02 177.263 201.8C178.603 200 180.313 199.1 182.393 199.1C183.993 199.1 185.203 199.55 186.023 200.45C186.863 201.33 187.283 202.57 187.283 204.17V215H184.733V205.25C184.733 203.97 184.533 203.01 184.133 202.37C183.733 201.71 182.903 201.38 181.643 201.38C179.003 201.38 177.683 202.99 177.683 206.21V215H175.133V205.07C175.133 203.89 174.933 202.99 174.533 202.37C174.153 201.73 173.403 201.41 172.283 201.41C170.703 201.41 169.603 201.9 168.983 202.88C168.383 203.84 168.083 205.15 168.083 206.81V215H165.533V199.52H167.933ZM202.599 204.02H200.049C199.889 202.14 198.629 201.2 196.269 201.2C195.289 201.2 194.519 201.39 193.959 201.77C193.399 202.15 193.119 202.66 193.119 203.3C193.119 203.48 193.139 203.66 193.179 203.84C193.219 204 193.289 204.15 193.389 204.29C193.509 204.41 193.609 204.52 193.689 204.62C193.789 204.72 193.939 204.82 194.139 204.92C194.359 205 194.519 205.07 194.619 205.13C194.739 205.19 194.939 205.26 195.219 205.34C195.519 205.4 195.729 205.45 195.849 205.49C195.969 205.51 196.199 205.56 196.539 205.64C196.899 205.72 197.129 205.77 197.229 205.79C197.969 205.95 198.519 206.08 198.879 206.18C199.259 206.28 199.769 206.47 200.409 206.75C201.069 207.01 201.569 207.29 201.909 207.59C202.249 207.87 202.549 208.27 202.809 208.79C203.089 209.29 203.229 209.86 203.229 210.5C203.229 212 202.639 213.21 201.459 214.13C200.299 215.03 198.749 215.48 196.809 215.48C194.709 215.48 193.089 215.02 191.949 214.1C190.829 213.18 190.229 211.85 190.149 210.11H192.669C192.809 212.29 194.209 213.38 196.869 213.38C198.009 213.38 198.919 213.15 199.599 212.69C200.299 212.21 200.649 211.58 200.649 210.8C200.649 210.28 200.469 209.85 200.109 209.51C199.749 209.17 199.349 208.93 198.909 208.79C198.469 208.63 197.839 208.45 197.019 208.25C196.899 208.23 196.809 208.21 196.749 208.19C196.569 208.15 196.179 208.07 195.579 207.95C194.999 207.81 194.579 207.7 194.319 207.62C194.059 207.54 193.679 207.42 193.179 207.26C192.699 207.08 192.339 206.9 192.099 206.72C191.859 206.52 191.589 206.28 191.289 206C191.009 205.7 190.809 205.36 190.689 204.98C190.569 204.58 190.509 204.13 190.509 203.63C190.509 202.23 191.039 201.12 192.099 200.3C193.179 199.48 194.619 199.07 196.419 199.07C198.239 199.07 199.719 199.5 200.859 200.36C202.019 201.22 202.599 202.44 202.599 204.02Z" fill="white"/>
</svg>
