<svg width="280" height="280" viewBox="0 0 280 280" fill="none" xmlns="http://www.w3.org/2000/svg">
<rect width="280" height="280" fill="#056EC9"/>
<rect x="100" y="56" width="80" height="80" fill="#056EC9"/>
<path d="M113 93H128.75V97.4792H123.125V106.351H125.774C127.871 106.351 130.656 105.091 132.1 103.555C134.32 101.192 136.521 99.7188 140 99.7188C143.479 99.7188 145.68 101.192 147.9 103.555C149.344 105.091 152.129 106.351 154.226 106.351H156.875V97.4792H151.25V93H167V97.4792H161.375V106.351H163.25C165.321 106.351 167 108.048 167 110.141V111.628C167 113.721 165.321 115.418 163.25 115.418H158.356L163.427 127.487C165.127 131.534 162.141 136 157.733 136H151.184V131.393H157.733C158.835 131.393 159.582 130.276 159.157 129.265L153.366 115.481C151.419 115.755 149.154 116.881 147.9 118.215C145.68 120.577 143.479 122.051 140 122.051C136.521 122.051 134.32 120.577 132.1 118.215C130.996 117.041 129.11 116.028 127.346 115.615L121.612 129.265C121.187 130.276 121.933 131.393 123.035 131.393H129.584V136H123.035C118.628 136 115.641 131.534 117.341 127.487L122.412 115.418H116.75C114.679 115.418 113 113.721 113 111.628V110.141C113 108.048 114.679 106.351 116.75 106.351H118.625V97.4792H113V93Z" fill="white"/>
<path d="M140 62L151 72.8947H145.926L144.074 85H135.926L134.074 72.8947H129L140 62Z" fill="white"/>
<path d="M111.997 162.64V165.1H100.777V171.76H110.677V174.13H100.777V184H97.9566V162.64H111.997ZM117.403 162.64V184H114.823V162.64H117.403ZM124.054 162.64V165.76H121.474V162.64H124.054ZM124.054 168.52V184H121.474V168.52H124.054ZM141.414 168.52V182.32C141.414 183.66 141.344 184.69 141.204 185.41C141.064 186.15 140.804 186.84 140.424 187.48C139.284 189.36 137.244 190.3 134.304 190.3C132.564 190.3 131.094 189.94 129.894 189.22C128.694 188.52 127.994 187.36 127.794 185.74H130.404C130.704 187.46 132.034 188.32 134.394 188.32C135.974 188.32 137.114 187.92 137.814 187.12C138.534 186.32 138.914 185.03 138.954 183.25L138.984 181.36C138.004 183.24 136.364 184.18 134.064 184.18C131.984 184.18 130.324 183.47 129.084 182.05C127.864 180.63 127.254 178.72 127.254 176.32C127.254 174.06 127.864 172.13 129.084 170.53C130.304 168.91 132.004 168.1 134.184 168.1C135.264 168.1 136.224 168.33 137.064 168.79C137.924 169.25 138.594 169.91 139.074 170.77V168.52H141.414ZM134.304 170.32C132.924 170.32 131.834 170.86 131.034 171.94C130.254 173 129.864 174.47 129.864 176.35C129.864 178.05 130.274 179.42 131.094 180.46C131.914 181.48 133.004 181.99 134.364 181.99C135.784 181.99 136.894 181.45 137.694 180.37C138.514 179.29 138.924 177.81 138.924 175.93C138.924 174.17 138.514 172.8 137.694 171.82C136.894 170.82 135.764 170.32 134.304 170.32ZM147.781 162.64V170.71C148.921 168.99 150.611 168.13 152.851 168.13C156.331 168.13 158.071 169.89 158.071 173.41V184H155.521V174.01C155.521 172.83 155.271 171.93 154.771 171.31C154.291 170.67 153.411 170.35 152.131 170.35C150.571 170.35 149.451 170.85 148.771 171.85C148.111 172.85 147.781 174.28 147.781 176.14V184H145.231V162.64H147.781ZM168.53 168.52V170.62H165.44V179.65C165.44 180.15 165.44 180.48 165.44 180.64C165.46 180.8 165.52 181.02 165.62 181.3C165.72 181.56 165.89 181.73 166.13 181.81C166.37 181.89 166.71 181.93 167.15 181.93C167.53 181.93 167.99 181.9 168.53 181.84V184.03C167.81 184.11 167.16 184.15 166.58 184.15C165.86 184.15 165.26 184.07 164.78 183.91C164.3 183.75 163.93 183.57 163.67 183.37C163.43 183.17 163.25 182.82 163.13 182.32C163.01 181.8 162.94 181.37 162.92 181.03C162.9 180.67 162.89 180.08 162.89 179.26C162.89 179.2 162.89 179.16 162.89 179.14C162.89 179.1 162.89 179.05 162.89 178.99C162.89 178.93 162.89 178.88 162.89 178.84V170.62H160.28V168.52H162.89V163.93H165.44V168.52H168.53ZM182.853 173.02H180.303C180.143 171.14 178.883 170.2 176.523 170.2C175.543 170.2 174.773 170.39 174.213 170.77C173.653 171.15 173.373 171.66 173.373 172.3C173.373 172.48 173.393 172.66 173.433 172.84C173.473 173 173.543 173.15 173.643 173.29C173.763 173.41 173.863 173.52 173.943 173.62C174.043 173.72 174.193 173.82 174.393 173.92C174.613 174 174.773 174.07 174.873 174.13C174.993 174.19 175.193 174.26 175.473 174.34C175.773 174.4 175.983 174.45 176.103 174.49C176.223 174.51 176.453 174.56 176.793 174.64C177.153 174.72 177.383 174.77 177.483 174.79C178.223 174.95 178.773 175.08 179.133 175.18C179.513 175.28 180.023 175.47 180.663 175.75C181.323 176.01 181.823 176.29 182.163 176.59C182.503 176.87 182.803 177.27 183.063 177.79C183.343 178.29 183.483 178.86 183.483 179.5C183.483 181 182.893 182.21 181.713 183.13C180.553 184.03 179.003 184.48 177.063 184.48C174.963 184.48 173.343 184.02 172.203 183.1C171.083 182.18 170.483 180.85 170.403 179.11H172.923C173.063 181.29 174.463 182.38 177.123 182.38C178.263 182.38 179.173 182.15 179.853 181.69C180.553 181.21 180.903 180.58 180.903 179.8C180.903 179.28 180.723 178.85 180.363 178.51C180.003 178.17 179.603 177.93 179.163 177.79C178.723 177.63 178.093 177.45 177.273 177.25C177.153 177.23 177.063 177.21 177.003 177.19C176.823 177.15 176.433 177.07 175.833 176.95C175.253 176.81 174.833 176.7 174.573 176.62C174.313 176.54 173.933 176.42 173.433 176.26C172.953 176.08 172.593 175.9 172.353 175.72C172.113 175.52 171.843 175.28 171.543 175C171.263 174.7 171.063 174.36 170.943 173.98C170.823 173.58 170.763 173.13 170.763 172.63C170.763 171.23 171.293 170.12 172.353 169.3C173.433 168.48 174.873 168.07 176.673 168.07C178.493 168.07 179.973 168.5 181.113 169.36C182.273 170.22 182.853 171.44 182.853 173.02ZM102.183 209.36C101.963 211.22 101.253 212.7 100.053 213.8C98.8734 214.9 97.3334 215.45 95.4334 215.45C93.0934 215.45 91.2834 214.73 90.0034 213.29C88.7234 211.83 88.0834 209.89 88.0834 207.47C88.0834 204.89 88.7534 202.85 90.0934 201.35C91.4334 199.83 93.2434 199.07 95.5234 199.07C97.4234 199.07 98.9434 199.55 100.083 200.51C101.223 201.45 101.893 202.8 102.093 204.56H99.4534C98.9934 202.32 97.6934 201.2 95.5534 201.2C94.0734 201.2 92.9034 201.75 92.0434 202.85C91.1834 203.93 90.7534 205.4 90.7534 207.26C90.7534 209.14 91.1634 210.62 91.9834 211.7C92.8034 212.78 93.9334 213.32 95.3734 213.32C96.5334 213.32 97.4734 212.98 98.1934 212.3C98.9334 211.62 99.4034 210.64 99.6034 209.36H102.183ZM106.207 201.29C107.567 199.81 109.417 199.07 111.757 199.07C114.097 199.07 115.917 199.78 117.217 201.2C118.517 202.62 119.167 204.61 119.167 207.17C119.167 209.79 118.517 211.83 117.217 213.29C115.917 214.75 114.087 215.48 111.727 215.48C109.367 215.48 107.517 214.76 106.177 213.32C104.837 211.88 104.167 209.88 104.167 207.32C104.167 204.78 104.847 202.77 106.207 201.29ZM115.237 202.85C114.377 201.75 113.197 201.2 111.697 201.2C110.197 201.2 109.007 201.75 108.127 202.85C107.247 203.95 106.807 205.42 106.807 207.26C106.807 209.16 107.237 210.65 108.097 211.73C108.977 212.79 110.197 213.32 111.757 213.32C113.257 213.32 114.427 212.78 115.267 211.7C116.127 210.62 116.557 209.13 116.557 207.23C116.557 205.39 116.117 203.93 115.237 202.85ZM135.043 199.52V215H132.673V212.57C131.353 214.47 129.573 215.42 127.333 215.42C125.693 215.42 124.423 214.97 123.523 214.07C122.623 213.17 122.173 211.87 122.173 210.17V199.52H124.723V209.48C124.723 210.7 124.953 211.63 125.413 212.27C125.893 212.89 126.743 213.2 127.963 213.2C130.983 213.2 132.493 211.34 132.493 207.62V199.52H135.043ZM146.943 199.16V201.8C146.763 201.78 146.543 201.77 146.283 201.77C145.463 201.77 144.753 201.9 144.153 202.16C143.553 202.4 143.073 202.72 142.713 203.12C142.373 203.52 142.093 204.02 141.873 204.62C141.653 205.22 141.503 205.82 141.423 206.42C141.363 207.02 141.333 207.7 141.333 208.46V215H138.783V199.52H141.213V202.85C142.233 200.39 144.143 199.16 146.943 199.16ZM160.353 204.02H157.803C157.643 202.14 156.383 201.2 154.023 201.2C153.043 201.2 152.273 201.39 151.713 201.77C151.153 202.15 150.873 202.66 150.873 203.3C150.873 203.48 150.893 203.66 150.933 203.84C150.973 204 151.043 204.15 151.143 204.29C151.263 204.41 151.363 204.52 151.443 204.62C151.543 204.72 151.693 204.82 151.893 204.92C152.113 205 152.273 205.07 152.373 205.13C152.493 205.19 152.693 205.26 152.973 205.34C153.273 205.4 153.483 205.45 153.603 205.49C153.723 205.51 153.953 205.56 154.293 205.64C154.653 205.72 154.883 205.77 154.983 205.79C155.723 205.95 156.273 206.08 156.633 206.18C157.013 206.28 157.523 206.47 158.163 206.75C158.823 207.01 159.323 207.29 159.663 207.59C160.003 207.87 160.303 208.27 160.563 208.79C160.843 209.29 160.983 209.86 160.983 210.5C160.983 212 160.393 213.21 159.213 214.13C158.053 215.03 156.503 215.48 154.563 215.48C152.463 215.48 150.843 215.02 149.703 214.1C148.583 213.18 147.983 211.85 147.903 210.11H150.423C150.563 212.29 151.963 213.38 154.623 213.38C155.763 213.38 156.673 213.15 157.353 212.69C158.053 212.21 158.403 211.58 158.403 210.8C158.403 210.28 158.223 209.85 157.863 209.51C157.503 209.17 157.103 208.93 156.663 208.79C156.223 208.63 155.593 208.45 154.773 208.25C154.653 208.23 154.563 208.21 154.503 208.19C154.323 208.15 153.933 208.07 153.333 207.95C152.753 207.81 152.333 207.7 152.073 207.62C151.813 207.54 151.433 207.42 150.933 207.26C150.453 207.08 150.093 206.9 149.853 206.72C149.613 206.52 149.343 206.28 149.043 206C148.763 205.7 148.563 205.36 148.443 204.98C148.323 204.58 148.263 204.13 148.263 203.63C148.263 202.23 148.793 201.12 149.853 200.3C150.933 199.48 152.373 199.07 154.173 199.07C155.993 199.07 157.473 199.5 158.613 200.36C159.773 201.22 160.353 202.44 160.353 204.02ZM177.093 210.11C176.313 213.71 174.063 215.51 170.343 215.51C168.063 215.51 166.273 214.8 164.973 213.38C163.693 211.96 163.053 209.99 163.053 207.47C163.053 204.97 163.713 202.95 165.033 201.41C166.373 199.85 168.113 199.07 170.253 199.07C172.633 199.07 174.393 199.88 175.533 201.5C176.693 203.1 177.273 205.13 177.273 207.59V207.95H165.633L165.603 208.13C165.603 209.77 166.033 211.06 166.893 212C167.753 212.94 168.933 213.41 170.433 213.41C171.553 213.41 172.433 213.15 173.073 212.63C173.733 212.11 174.243 211.27 174.603 210.11H177.093ZM174.633 205.88C174.513 204.4 174.063 203.25 173.283 202.43C172.503 201.59 171.473 201.17 170.193 201.17C168.953 201.17 167.923 201.59 167.103 202.43C166.283 203.27 165.793 204.42 165.633 205.88H174.633ZM191.467 204.02H188.917C188.757 202.14 187.497 201.2 185.137 201.2C184.157 201.2 183.387 201.39 182.827 201.77C182.267 202.15 181.987 202.66 181.987 203.3C181.987 203.48 182.007 203.66 182.047 203.84C182.087 204 182.157 204.15 182.257 204.29C182.377 204.41 182.477 204.52 182.557 204.62C182.657 204.72 182.807 204.82 183.007 204.92C183.227 205 183.387 205.07 183.487 205.13C183.607 205.19 183.807 205.26 184.087 205.34C184.387 205.4 184.597 205.45 184.717 205.49C184.837 205.51 185.067 205.56 185.407 205.64C185.767 205.72 185.997 205.77 186.097 205.79C186.837 205.95 187.387 206.08 187.747 206.18C188.127 206.28 188.637 206.47 189.277 206.75C189.937 207.01 190.437 207.29 190.777 207.59C191.117 207.87 191.417 208.27 191.677 208.79C191.957 209.29 192.097 209.86 192.097 210.5C192.097 212 191.507 213.21 190.327 214.13C189.167 215.03 187.617 215.48 185.677 215.48C183.577 215.48 181.957 215.02 180.817 214.1C179.697 213.18 179.097 211.85 179.017 210.11H181.537C181.677 212.29 183.077 213.38 185.737 213.38C186.877 213.38 187.787 213.15 188.467 212.69C189.167 212.21 189.517 211.58 189.517 210.8C189.517 210.28 189.337 209.85 188.977 209.51C188.617 209.17 188.217 208.93 187.777 208.79C187.337 208.63 186.707 208.45 185.887 208.25C185.767 208.23 185.677 208.21 185.617 208.19C185.437 208.15 185.047 208.07 184.447 207.95C183.867 207.81 183.447 207.7 183.187 207.62C182.927 207.54 182.547 207.42 182.047 207.26C181.567 207.08 181.207 206.9 180.967 206.72C180.727 206.52 180.457 206.28 180.157 206C179.877 205.7 179.677 205.36 179.557 204.98C179.437 204.58 179.377 204.13 179.377 203.63C179.377 202.23 179.907 201.12 180.967 200.3C182.047 199.48 183.487 199.07 185.287 199.07C187.107 199.07 188.587 199.5 189.727 200.36C190.887 201.22 191.467 202.44 191.467 204.02Z" fill="white"/>
</svg>
